<svg width="110" height="34" viewBox="0 0 110 34" fill="none" xmlns="http://www.w3.org/2000/svg">
<path d="M43.3011 5.63199C43.3011 5.40199 43.3061 5.21199 43.3011 5.02699C43.2911 4.83199 43.3811 4.75699 43.5711 4.76699C43.7961 4.77699 44.0211 4.76699 44.2461 4.76699C44.5461 4.77199 44.5611 4.78699 44.5611 5.10199C44.5611 6.02699 44.5611 6.95199 44.5611 7.87699C44.5611 7.95199 44.5611 8.02699 44.5611 8.10199C44.5761 8.63699 44.7561 8.81199 45.2961 8.81699C45.6561 8.81699 46.0111 8.81699 46.3711 8.81699C46.6861 8.81699 46.6961 8.80699 46.6961 8.49699C46.6961 7.63699 46.6961 6.78199 46.6961 5.92199C46.6961 5.57699 46.7061 5.56699 47.0461 5.56699C47.2561 5.56699 47.4611 5.57699 47.6711 5.56199C47.8911 5.54699 47.9611 5.64199 47.9611 5.85699C47.9561 6.72199 47.9561 7.58699 47.9561 8.45699C47.9561 8.81199 47.9561 8.81699 48.3211 8.81699C48.8561 8.81699 49.3861 8.81699 49.9211 8.81699C49.9761 8.81699 50.0311 8.80199 50.0261 8.80199C49.9811 8.29699 49.9061 7.81699 49.9061 7.33199C49.9011 6.18199 50.9161 5.18199 52.0661 5.17199C52.3161 5.17199 52.5711 5.15699 52.8111 5.20699C53.8761 5.42199 54.6011 6.28199 54.6511 7.37199C54.6811 8.03199 54.5661 8.64699 54.1361 9.17699C53.7661 9.63699 53.2811 9.88699 52.7111 9.96699C52.3661 10.012 52.0161 10.022 51.6661 10.022C49.4161 10.027 47.1661 10.027 44.9211 10.022C44.6661 10.022 44.4011 10.007 44.1511 9.96199C43.9761 9.92699 43.8011 9.84699 43.6561 9.74199C43.5261 9.65199 43.4361 9.64199 43.3311 9.74199C42.7311 10.302 41.4411 10.242 40.7461 9.76699C39.9061 9.18699 39.6611 8.34199 39.7611 7.38199C39.8461 6.53699 40.2761 5.87699 41.0611 5.53199C41.7861 5.20199 42.5311 5.18199 43.3011 5.63199ZM40.9611 7.70699C40.9511 8.37199 41.4661 8.88699 42.1411 8.90199C42.7611 8.91199 43.2911 8.35699 43.2911 7.69699C43.2911 7.09699 42.7711 6.55699 42.1711 6.53699C41.5311 6.51199 40.9711 7.05199 40.9611 7.70699ZM53.4061 7.57699C53.4061 6.88199 52.9561 6.40699 52.2911 6.40199C51.6211 6.39699 51.1111 6.91699 51.1111 7.59699C51.1161 8.24199 51.6261 8.75199 52.2761 8.75199C52.9111 8.75699 53.4061 8.24699 53.4061 7.57699Z" fill="black"/>
<path d="M103.356 8.80692C103.811 8.80692 104.201 8.81192 104.591 8.80192C104.646 8.80192 104.716 8.71192 104.741 8.64692C104.766 8.57192 104.751 8.48192 104.751 8.39692C104.751 6.75692 104.751 5.11192 104.751 3.47192C104.751 3.12692 104.761 3.11692 105.096 3.11692C105.321 3.11692 105.546 3.12192 105.771 3.11692C105.941 3.11192 106.016 3.19192 106.006 3.35692C106.001 3.42192 106.006 3.49192 106.006 3.55692C106.006 5.59192 106.006 7.62192 106.006 9.65692C106.006 10.0119 105.996 10.0169 105.641 10.0169C101.566 10.0169 97.4912 10.0169 93.4162 10.0169C93.0562 10.0169 93.0512 10.0069 93.0512 9.65192C93.0512 9.47692 93.0612 9.30192 93.0462 9.12692C93.0312 8.89192 93.1162 8.80192 93.3612 8.80692C94.1262 8.81692 94.8962 8.81192 95.6612 8.81192C95.9862 8.81192 96.0112 8.80192 95.9962 8.47692C95.9762 8.10692 95.9662 7.72192 95.8662 7.36692C95.6712 6.67192 95.0512 6.31692 94.3362 6.44192C94.1812 6.46692 94.0262 6.50692 93.8812 6.56192C93.7462 6.61192 93.6612 6.59192 93.6012 6.45692C93.4962 6.20192 93.3862 5.95192 93.2762 5.69692C93.1962 5.52192 93.3012 5.45192 93.4362 5.40192C94.9412 4.83192 96.9512 5.24692 97.2962 7.46192C97.3512 7.81192 97.3512 8.17692 97.3562 8.53192C97.3612 8.73192 97.4162 8.82192 97.6262 8.81692C98.0912 8.80692 98.5562 8.81192 99.0662 8.81192C98.6662 7.70692 98.6962 6.67192 99.5062 5.80192C100.036 5.23192 100.751 5.09692 101.506 5.16192C102.366 5.23692 102.996 5.66192 103.361 6.44692C103.721 7.20692 103.666 7.98692 103.356 8.80692ZM102.356 7.58692C102.356 6.87192 101.886 6.38692 101.201 6.39692C100.571 6.40192 100.061 6.93192 100.061 7.57192C100.061 8.23692 100.561 8.74192 101.221 8.75192C101.856 8.76192 102.356 8.24692 102.356 7.58692Z" fill="black"/>
<path d="M63.2413 8.79692C63.1763 8.35692 63.0663 7.94192 63.0613 7.53192C63.0413 6.20192 64.0463 5.22192 65.3813 5.20692C65.9613 5.20192 66.4913 5.32192 66.9463 5.68692C67.1913 5.88192 67.1863 5.93192 66.9913 6.16192C66.8363 6.34692 66.6813 6.53192 66.5263 6.71692C66.4213 6.84692 66.3313 6.85692 66.1963 6.73692C65.7413 6.33692 65.0463 6.35692 64.6263 6.76692C64.2063 7.18192 64.1513 7.94692 64.5313 8.38692C64.7913 8.68692 65.1513 8.79692 65.5413 8.80192C65.9663 8.80692 66.3913 8.81192 66.8163 8.80192C67.0363 8.79692 67.1163 8.88192 67.1063 9.09692C67.0963 9.33192 67.1013 9.56192 67.1013 9.79692C67.1013 9.94192 67.0363 10.0119 66.8913 10.0119C66.8263 10.0119 66.7563 10.0119 66.6913 10.0119C63.0513 10.0119 59.4063 10.0119 55.7663 10.0119C55.3463 10.0119 55.3463 10.0119 55.3463 9.60192C55.3463 9.41692 55.3513 9.23692 55.3463 9.05192C55.3413 8.86692 55.4263 8.80192 55.6013 8.80192C56.0663 8.80692 56.5363 8.79692 57.0013 8.80692C57.2313 8.81192 57.3163 8.73192 57.2963 8.50192C57.2113 7.65692 57.1263 6.81192 57.0563 5.96692C57.0413 5.77692 56.9713 5.70692 56.7813 5.70692C56.1363 5.71192 56.2013 5.78192 56.1963 5.11692C56.1963 4.60692 56.1963 4.60692 56.6913 4.60692C57.1163 4.60692 57.5413 4.61192 57.9663 4.60692C58.1663 4.60192 58.2413 4.68692 58.2563 4.88692C58.3463 5.99692 58.4413 7.10692 58.5463 8.21692C58.6013 8.80692 58.6113 8.80192 59.2113 8.80192C59.4213 8.80192 59.6263 8.79192 59.8363 8.80192C60.0363 8.81192 60.0963 8.72192 60.0963 8.53192C60.0913 7.69692 60.0963 6.86692 60.0963 6.03192C60.0963 5.15692 60.1013 4.28192 60.0913 3.40692C60.0913 3.18192 60.1613 3.08192 60.3913 3.09692C60.6063 3.11192 60.8263 3.11192 61.0413 3.09692C61.2813 3.08192 61.3563 3.18192 61.3563 3.41692C61.3513 5.00692 61.3513 6.60192 61.3513 8.19192C61.3513 8.88192 61.2663 8.79192 61.9713 8.79692C62.3813 8.80192 62.7863 8.79692 63.1963 8.79192C63.2263 8.80692 63.2513 8.79692 63.2413 8.79692Z" fill="black"/>
<path d="M84.1512 5.67186C84.1512 5.39686 84.1562 5.20686 84.1512 5.02186C84.1462 4.84186 84.2162 4.76186 84.4012 4.76686C84.6412 4.77186 84.8862 4.77686 85.1262 4.76686C85.3462 4.75686 85.4162 4.84686 85.4162 5.06186C85.4112 6.01186 85.4112 6.96186 85.4112 7.91186C85.4112 8.69686 85.5362 8.82186 86.3262 8.82186C87.1012 8.82186 87.1012 8.82186 87.1012 8.05186C87.1012 7.32686 87.1062 6.60186 87.0962 5.87686C87.0912 5.65186 87.1662 5.55686 87.4012 5.57186C87.6162 5.58686 87.8362 5.57186 88.0512 5.57686C88.3962 5.57686 88.4062 5.58686 88.4062 5.92186C88.4062 6.78186 88.4062 7.63686 88.4062 8.49686C88.4062 8.81186 88.4212 8.82186 88.7262 8.82686C89.1412 8.82686 89.5612 8.82186 89.9762 8.83186C90.1862 8.83686 90.2512 8.75686 90.2512 8.55186C90.2462 7.67686 90.2462 6.80186 90.2512 5.92686C90.2512 5.58686 90.2612 5.57686 90.6062 5.57686C90.7662 5.57686 90.9212 5.57686 91.0812 5.57686C91.5112 5.57686 91.5112 5.57686 91.5112 5.99686C91.5112 7.20686 91.5112 8.41186 91.5112 9.62186C91.5112 9.65686 91.5062 9.68686 91.5112 9.72186C91.5412 9.96186 91.4312 10.0369 91.1962 10.0369C89.5212 10.0319 87.8462 10.0369 86.1762 10.0319C85.8262 10.0319 85.4762 10.0269 85.1312 9.97686C84.9162 9.94686 84.7012 9.85686 84.5112 9.75186C84.3812 9.68186 84.3012 9.66186 84.1812 9.75186C83.3862 10.3119 82.5512 10.2769 81.7312 9.83686C80.9662 9.42686 80.6462 8.73186 80.6062 7.88186C80.5712 7.09686 80.7912 6.42186 81.3862 5.88186C81.7612 5.54186 82.2012 5.36186 82.6962 5.33186C83.1762 5.28686 83.6712 5.27686 84.1512 5.67186ZM81.8112 7.72186C81.8112 8.39686 82.3062 8.89186 82.9762 8.89686C83.6162 8.90186 84.1512 8.35186 84.1362 7.70686C84.1212 7.06686 83.6062 6.53686 83.0012 6.53686C82.3362 6.53186 81.8112 7.05686 81.8112 7.72186Z" fill="black"/>
<path d="M67.9762 30.5669C65.6612 30.5669 63.3412 30.5719 61.0262 30.5619C60.7712 30.5619 60.6662 30.6269 60.6262 30.8969C60.5062 31.7219 60.0912 32.1919 59.4112 32.3369C59.3212 32.3569 59.2312 32.3569 59.1412 32.3669C58.9712 32.3819 58.8962 32.2919 58.9062 32.1269C58.9112 32.0269 58.9162 31.9269 58.9062 31.8269C58.8812 31.5969 58.9612 31.4869 59.2012 31.4319C59.5512 31.3519 59.7512 31.0269 59.7512 30.5769C59.7562 29.6369 59.7512 28.6919 59.7512 27.7519C59.7512 27.3669 59.7512 27.3669 60.1462 27.3669C60.6562 27.3669 60.6562 27.3669 60.6562 27.8869C60.6562 28.4019 60.6612 28.9219 60.6562 29.4369C60.6512 29.6369 60.7212 29.7219 60.9312 29.7169C62.4962 29.7119 64.0662 29.7119 65.6312 29.7169C65.8612 29.7169 65.9112 29.6169 65.9112 29.4119C65.9062 28.2769 65.9062 27.1469 65.9112 26.0119C65.9112 25.6769 65.9212 25.6619 66.2662 25.6619C66.8712 25.6619 66.8112 25.6169 66.8112 26.2169C66.8112 26.4769 66.8112 26.7319 66.8112 26.9919C66.8112 27.3569 66.8162 27.3619 67.1712 27.3619C67.9062 27.3619 68.6362 27.3619 69.3712 27.3619C70.4162 27.3619 71.0562 28.0019 71.0662 29.0419C71.0712 29.8169 70.9612 29.7069 71.7462 29.7119C72.1862 29.7169 72.6312 29.7119 73.0712 29.7119C73.3562 29.7119 73.3612 29.6969 73.2812 29.4319C73.0462 28.6419 73.3012 27.7919 73.9512 27.3669C74.5062 27.0019 75.1162 26.9869 75.7162 27.2719C76.3112 27.5569 76.5912 28.0569 76.6212 28.7169C76.6462 29.3969 76.4762 29.9919 75.8362 30.3219C75.5562 30.4669 75.2212 30.5569 74.9112 30.5569C72.5912 30.5769 70.2812 30.5669 67.9762 30.5669ZM68.4662 29.7169C68.8162 29.7169 69.1662 29.7219 69.5162 29.7169C70.2412 29.7119 70.1512 29.8119 70.1562 29.0819C70.1562 28.5719 69.9162 28.2919 69.4062 28.2819C68.6162 28.2619 67.8262 28.2769 67.0312 28.2719C66.8712 28.2719 66.8062 28.3469 66.8062 28.5019C66.8112 28.8169 66.8162 29.1369 66.8062 29.4519C66.8012 29.6619 66.8962 29.7269 67.0912 29.7219C67.5512 29.7119 68.0062 29.7169 68.4662 29.7169ZM75.7062 28.8419C75.7062 28.3319 75.4012 28.0069 74.9262 28.0069C74.4312 28.0069 74.0662 28.3669 74.0662 28.8469C74.0712 29.2819 74.4662 29.6669 74.9062 29.6619C75.4012 29.6619 75.7062 29.3469 75.7062 28.8419Z" fill="black"/>
<path d="M43.2812 20.1571C43.3512 19.9871 43.4012 19.8721 43.4462 19.7571C44.0662 18.2171 44.6862 16.6821 45.2962 15.1421C45.3812 14.9271 45.4962 14.8421 45.7212 14.8571C45.9762 14.8721 46.2362 14.8721 46.4962 14.8571C46.7412 14.8421 46.8112 14.9471 46.8112 15.1771C46.8012 16.5521 46.8062 17.9271 46.8062 19.3021C46.8062 20.0021 46.7962 20.7021 46.8112 21.4021C46.8162 21.6421 46.7262 21.7321 46.4912 21.7171C46.2662 21.7021 46.0412 21.7021 45.8162 21.7171C45.5762 21.7321 45.4962 21.6371 45.4962 21.3971C45.5062 20.3071 45.5012 19.2121 45.5012 18.1221C45.5012 18.0571 45.5012 17.9921 45.5012 17.9221C45.4912 17.9221 45.4812 17.9171 45.4712 17.9171C45.3512 18.2321 45.2412 18.5571 45.1112 18.8671C44.7462 19.7421 44.3662 20.6121 43.9962 21.4871C43.9262 21.6521 43.8312 21.7171 43.6562 21.7121C43.4062 21.7021 43.1562 21.7021 42.9062 21.7121C42.7112 21.7221 42.6062 21.6371 42.5362 21.4571C42.0712 20.3071 41.5962 19.1621 41.1262 18.0121C41.1162 17.9921 41.1012 17.9771 41.0562 17.9221C41.0562 18.2471 41.0562 18.5271 41.0562 18.8071C41.0562 19.6721 41.0512 20.5421 41.0612 21.4071C41.0612 21.6321 40.9912 21.7321 40.7612 21.7171C40.5262 21.7021 40.2962 21.7021 40.0612 21.7171C39.8162 21.7321 39.7462 21.6271 39.7512 21.3921C39.7562 19.7321 39.7562 18.0771 39.7562 16.4171C39.7562 15.9921 39.7662 15.5671 39.7512 15.1421C39.7462 14.9221 39.8312 14.8421 40.0462 14.8521C40.3112 14.8621 40.5812 14.8671 40.8462 14.8521C41.0762 14.8371 41.1862 14.9371 41.2712 15.1471C41.8912 16.7221 42.5262 18.2871 43.1512 19.8571C43.1812 19.9471 43.2212 20.0221 43.2812 20.1571Z" fill="black"/>
<path d="M0.00125004 16.6369C0.00125004 14.9719 0.00125004 13.3069 0.00125004 11.6369C0.00125004 11.1669 0.29125 10.7569 0.70125 10.6069C1.12125 10.4569 1.63625 10.5819 1.91625 10.9069C2.12125 11.1469 2.19625 11.4369 2.20125 11.7419C2.20625 15.0219 2.20625 18.3069 2.20125 21.5869C2.20125 22.1819 1.87125 22.6069 1.35125 22.7369C0.87625 22.8569 0.36625 22.6519 0.14125 22.2019C0.0462498 22.0119 0.00624996 21.7719 0.00624996 21.5519C-0.00375004 19.9169 0.00125004 18.2769 0.00125004 16.6369Z" fill="black"/>
<path d="M32.3563 16.6619C32.3563 18.3219 32.3563 19.9769 32.3563 21.6369C32.3563 22.0869 32.1763 22.4519 31.7563 22.6519C31.3263 22.8619 30.9113 22.8019 30.5363 22.5019C30.2463 22.2719 30.1613 21.9419 30.1513 21.5869C30.1413 21.2619 30.1513 20.9369 30.1513 20.6119C30.1513 17.6869 30.1513 14.7669 30.1563 11.8419C30.1563 11.6519 30.1763 11.4569 30.2313 11.2769C30.4063 10.7369 30.9113 10.4669 31.5063 10.5669C31.9713 10.6469 32.3463 11.1069 32.3513 11.6369C32.3613 12.4719 32.3563 13.3019 32.3563 14.1369C32.3613 14.9819 32.3613 15.8219 32.3563 16.6619Z" fill="black"/>
<path d="M14.0613 32.2469C14.0563 33.0519 13.2363 33.5719 12.5013 33.2069C12.0113 32.9669 11.5463 32.6669 11.0713 32.3919C8.81626 31.0919 6.56126 29.7919 4.30126 28.4869C4.09126 28.3669 3.88126 28.2469 3.68126 28.1169C3.20626 27.8019 3.06126 27.1619 3.33626 26.6569C3.60126 26.1769 4.23626 25.9519 4.74626 26.2169C5.36626 26.5369 5.96126 26.9069 6.56626 27.2519C8.49126 28.3619 10.4163 29.4719 12.3413 30.5819C12.7313 30.8069 13.1163 31.0369 13.5063 31.2569C13.8913 31.4819 14.0713 31.8119 14.0613 32.2469Z" fill="black"/>
<path d="M18.3012 32.2321C18.2862 31.7971 18.4712 31.4871 18.8362 31.2771C21.1912 29.9171 23.5462 28.5571 25.9062 27.1921C26.4012 26.9071 26.9012 26.6221 27.3962 26.3271C27.7912 26.0921 28.1912 26.0321 28.6062 26.2521C28.9662 26.4471 29.1512 26.7621 29.1612 27.1671C29.1712 27.5871 29.0062 27.9321 28.6362 28.1521C27.4562 28.8421 26.2762 29.5221 25.0962 30.2071C23.5262 31.1171 21.9562 32.0221 20.3812 32.9271C20.2312 33.0121 20.0812 33.1021 19.9262 33.1871C19.1562 33.6071 18.2162 33.0071 18.3012 32.2321Z" fill="black"/>
<path d="M18.3012 1.12701C18.2812 0.0520064 19.3362 -0.197993 19.9312 0.142007C21.8912 1.26201 23.8412 2.39701 25.7962 3.52701C26.7212 4.06201 27.6412 4.59701 28.5662 5.12201C29.1212 5.43701 29.3212 6.06701 29.0312 6.62201C28.7512 7.15701 28.1062 7.37201 27.5512 7.06701C26.6162 6.55201 25.6962 6.01201 24.7762 5.48201C22.8412 4.36701 20.9112 3.24701 18.9762 2.13701C18.5662 1.89201 18.2662 1.60201 18.3012 1.12701Z" fill="black"/>
<path d="M14.0612 1.09693C14.0762 1.50193 13.9062 1.81193 13.5662 2.01193C12.5162 2.62693 11.4662 3.23193 10.4112 3.84193C8.61119 4.88193 6.80619 5.92693 5.00619 6.96693C4.73619 7.12193 4.45119 7.23693 4.13119 7.17693C3.63119 7.08693 3.31119 6.78693 3.22119 6.30693C3.13619 5.84193 3.32619 5.39693 3.74119 5.15193C4.69619 4.59193 5.65619 4.04193 6.61619 3.48693C8.18119 2.58193 9.74619 1.68193 11.3112 0.776934C11.6862 0.561934 12.0512 0.326934 12.4412 0.131934C13.1612 -0.233066 14.0962 0.181934 14.0612 1.09693Z" fill="black"/>
<path d="M27.8262 8.76709C28.4112 8.76709 28.8512 9.10209 28.9862 9.54209C29.1262 10.0021 28.9662 10.5021 28.5462 10.7671C28.0562 11.0771 27.5412 11.3571 27.0362 11.6521C25.5862 12.4871 24.1412 13.3271 22.6912 14.1621C21.7812 14.6871 20.8762 15.2171 19.9662 15.7321C19.3812 16.0671 18.7412 15.9071 18.4312 15.3521C18.1812 14.9071 18.2262 14.2071 18.8612 13.8421C20.4062 12.9571 21.9462 12.0621 23.4862 11.1721C24.7312 10.4521 25.9762 9.72709 27.2312 9.01709C27.4562 8.89209 27.7012 8.81709 27.8262 8.76709Z" fill="black"/>
<path d="M27.9012 24.517C27.5662 24.552 27.3062 24.337 27.0312 24.177C24.2962 22.602 21.5612 21.022 18.8312 19.447C18.3812 19.187 18.2462 18.777 18.3162 18.297C18.3812 17.877 18.6512 17.592 19.0562 17.462C19.3612 17.362 19.6662 17.402 19.9462 17.562C21.8062 18.637 23.6662 19.717 25.5262 20.792C26.4562 21.327 27.3862 21.867 28.3212 22.397C28.8262 22.687 29.0962 23.112 29.0362 23.557C28.9512 24.157 28.5362 24.517 27.9012 24.517Z" fill="black"/>
<path d="M4.40625 24.557C3.90125 24.517 3.49625 24.217 3.36625 23.757C3.23125 23.272 3.41625 22.772 3.84125 22.527C5.79125 21.397 7.74625 20.267 9.70125 19.142C10.6113 18.617 11.5162 18.097 12.4262 17.567C12.9412 17.267 13.5862 17.417 13.8962 17.912C14.2112 18.412 14.0813 19.097 13.5663 19.402C12.5463 20.017 11.5113 20.607 10.4813 21.202C9.03125 22.042 7.58625 22.877 6.13625 23.712C5.74625 23.937 5.36125 24.172 4.96625 24.377C4.79625 24.467 4.59625 24.497 4.40625 24.557Z" fill="black"/>
<path d="M14.0562 14.612C14.0562 15.647 13.1812 16.172 12.4362 15.747C10.7012 14.752 8.97616 13.747 7.24616 12.747C6.12116 12.097 4.99616 11.452 3.87116 10.802C3.33616 10.492 3.17616 9.85198 3.48616 9.30698C3.77116 8.81198 4.42616 8.63698 4.94616 8.93198C6.66616 9.91698 8.38116 10.907 10.0962 11.897C11.2412 12.557 12.3862 13.222 13.5362 13.882C13.8862 14.082 14.0462 14.392 14.0562 14.612Z" fill="black"/>
<path d="M17.2562 8.01708C17.2562 9.66708 17.2562 11.3171 17.2562 12.9671C17.2562 13.5071 16.9562 13.8821 16.4362 14.0221C15.9712 14.1421 15.4612 13.9321 15.2312 13.4921C15.1562 13.3521 15.1112 13.1771 15.1112 13.0171C15.1062 9.68208 15.1062 6.35208 15.1062 3.01708C15.1062 2.43708 15.5812 1.98208 16.1712 1.97208C16.7562 1.96208 17.2562 2.43708 17.2562 3.02208C17.2612 4.68708 17.2562 6.35208 17.2562 8.01708Z" fill="black"/>
<path d="M17.2562 25.2871C17.2562 26.9421 17.2562 28.6021 17.2562 30.2571C17.2562 30.7871 16.8712 31.2321 16.3662 31.3071C15.8012 31.3921 15.2962 31.0771 15.1462 30.5471C15.1162 30.4371 15.1062 30.3171 15.1062 30.2021C15.1062 26.9321 15.1062 23.6571 15.1062 20.3871C15.1062 19.7271 15.5512 19.2671 16.1862 19.2671C16.8162 19.2671 17.2562 19.7321 17.2562 20.3921C17.2562 22.0271 17.2562 23.6571 17.2562 25.2871Z" fill="black"/>
<path d="M74.0562 6.56693C74.0562 7.60693 74.0562 8.65193 74.0562 9.69193C74.0562 9.99693 74.0362 10.0169 73.7262 10.0169C71.9262 10.0169 70.1262 10.0169 68.3262 10.0169C68.0212 10.0169 68.0012 9.99693 68.0012 9.68693C68.0012 9.48693 68.0062 9.28693 68.0012 9.08693C67.9912 8.88693 68.0712 8.80193 68.2812 8.80693C68.7662 8.81693 69.2462 8.80693 69.7312 8.81193C69.9362 8.81693 70.0112 8.75693 69.9862 8.53193C69.8962 7.68693 69.8212 6.84193 69.7562 5.99693C69.7412 5.78193 69.6712 5.70693 69.4562 5.71193C68.7862 5.71693 68.8562 5.80193 68.8512 5.09193C68.8512 4.61193 68.8512 4.61193 69.3262 4.61193C69.7512 4.61193 70.1762 4.62193 70.6012 4.60693C70.8412 4.59693 70.9312 4.70193 70.9462 4.92193C70.9962 5.57693 71.0512 6.23193 71.1062 6.88693C71.1562 7.46693 71.2012 8.04693 71.2662 8.62693C71.2712 8.69193 71.3862 8.79693 71.4512 8.79693C71.8162 8.81193 72.1862 8.81693 72.5512 8.79693C72.6212 8.79193 72.7162 8.68693 72.7412 8.60693C72.7762 8.50193 72.7512 8.37693 72.7512 8.26193C72.7512 6.66193 72.7512 5.06193 72.7512 3.46193C72.7512 3.12193 72.7612 3.11193 73.1062 3.11193C73.3212 3.11193 73.5412 3.12193 73.7562 3.10693C73.9862 3.09193 74.0612 3.19193 74.0612 3.41693C74.0562 4.46693 74.0562 5.51693 74.0562 6.56693Z" fill="black"/>
<path d="M73.8212 19.2369C74.1212 19.4519 74.4262 19.6569 74.7112 19.8819C74.7562 19.9219 74.7712 20.0769 74.7312 20.1369C74.0412 21.1519 73.1762 21.8369 71.8612 21.8319C70.8012 21.8269 69.8762 21.5469 69.1312 20.7719C68.6362 20.2519 68.3562 19.6219 68.2762 18.9219C68.1862 18.0969 68.2112 17.2719 68.6312 16.5119C69.1812 15.5219 70.0162 14.9369 71.1362 14.7669C72.1362 14.6119 73.0962 14.7469 73.9012 15.3969C74.2212 15.6569 74.4562 16.0269 74.7212 16.3519C74.8112 16.4669 74.7712 16.5619 74.6512 16.6419C74.4362 16.7869 74.2312 16.9419 74.0212 17.0919C73.7312 17.3019 73.7462 17.2869 73.5362 16.9919C73.3662 16.7519 73.1762 16.5019 72.9362 16.3369C72.2612 15.8619 71.5162 15.8219 70.7862 16.1869C70.0312 16.5669 69.6562 17.2119 69.6062 18.0569C69.5712 18.7019 69.6912 19.2919 70.1012 19.8169C70.8662 20.8019 72.5062 20.8519 73.3112 19.9019C73.4862 19.6969 73.6362 19.4769 73.8212 19.2369Z" fill="black"/>
<path d="M56.4513 21.217C56.1763 21.392 55.9413 21.622 55.6613 21.712C54.2363 22.157 52.7413 21.297 52.6063 19.672C52.5563 19.057 52.5913 18.447 52.9163 17.882C53.5713 16.742 55.0213 16.427 55.9713 16.932C56.1263 17.017 56.2613 17.142 56.4513 17.277C56.4513 17.157 56.4513 17.072 56.4513 16.987C56.4513 16.387 56.4563 15.787 56.4463 15.187C56.4413 14.957 56.5113 14.847 56.7563 14.862C56.9863 14.877 57.2213 14.877 57.4563 14.862C57.6913 14.847 57.7613 14.952 57.7563 15.172C57.7463 15.837 57.7513 16.507 57.7513 17.172C57.7513 18.572 57.7513 19.972 57.7513 21.372C57.7513 21.712 57.7413 21.722 57.4013 21.722C57.1913 21.722 56.9863 21.712 56.7763 21.727C56.5263 21.747 56.4163 21.652 56.4463 21.397C56.4613 21.337 56.4513 21.277 56.4513 21.217ZM55.2113 20.617C55.9763 20.617 56.5463 20.042 56.5513 19.272C56.5563 18.492 55.9813 17.917 55.2013 17.917C54.4313 17.917 53.8713 18.492 53.8763 19.272C53.8813 20.052 54.4413 20.617 55.2113 20.617Z" fill="black"/>
<path d="M64.7362 21.287C64.5062 21.427 64.3162 21.567 64.1012 21.667C63.3812 22.012 62.2812 21.862 61.6812 21.277C60.7562 20.382 60.5912 19.327 61.0212 18.167C61.5012 16.872 63.0662 16.282 64.2612 16.922C64.4212 17.007 64.5612 17.127 64.7062 17.232C64.7212 17.217 64.7412 17.207 64.7412 17.197C64.7762 16.812 64.7762 16.812 65.1662 16.812C65.3812 16.812 65.6012 16.817 65.8162 16.812C65.9812 16.807 66.0612 16.877 66.0612 17.047C66.0612 18.527 66.0612 20.012 66.0612 21.492C66.0612 21.647 65.9912 21.722 65.8362 21.717C65.5762 21.712 65.3212 21.707 65.0612 21.722C64.8412 21.732 64.7262 21.657 64.7512 21.422C64.7562 21.382 64.7462 21.342 64.7362 21.287ZM63.4262 17.922C62.6912 17.922 62.1162 18.502 62.1112 19.237C62.1062 19.992 62.6912 20.607 63.4062 20.607C64.1512 20.607 64.7562 20.002 64.7512 19.252C64.7462 18.497 64.1712 17.917 63.4262 17.922Z" fill="black"/>
<path d="M83.5412 19.8619C83.7362 19.3569 83.9012 18.9269 84.0662 18.4919C84.2512 18.0019 84.4362 17.5069 84.6262 17.0219C84.6562 16.9469 84.7362 16.8369 84.7962 16.8369C85.2262 16.8219 85.6562 16.8269 86.1262 16.8269C86.0912 16.9419 86.0762 17.0169 86.0462 17.0919C85.2962 18.9519 84.5512 20.8169 83.7912 22.6769C83.4062 23.6169 82.6812 23.8619 81.7612 23.7069C81.6012 23.6819 81.5312 23.5869 81.5562 23.4219C81.6012 23.1669 81.6462 22.9119 81.6862 22.6569C81.7062 22.5269 81.7612 22.4569 81.9012 22.5069C82.1512 22.5919 82.4012 22.5969 82.5562 22.3619C82.7362 22.0869 82.8962 21.8069 82.7412 21.4369C82.1262 19.9769 81.5362 18.5069 80.9412 17.0419C80.9212 16.9919 80.9112 16.9319 80.8812 16.8169C81.1012 16.8169 81.2962 16.8119 81.4862 16.8169C82.5062 16.8369 82.2312 16.6569 82.6112 17.5769C82.8962 18.2619 83.1612 18.9569 83.4312 19.6419C83.4612 19.6919 83.4862 19.7419 83.5412 19.8619Z" fill="black"/>
<path d="M50.3413 19.5719C49.8313 19.5719 49.3263 19.5719 48.8163 19.5719C48.5113 19.5719 48.4763 19.6219 48.5863 19.9119C48.7563 20.3519 49.0713 20.6269 49.5363 20.7019C50.0763 20.7869 50.5413 20.6369 50.8863 20.1869C50.9263 20.1319 50.9663 20.0819 50.9963 20.0219C51.0713 19.8719 51.1713 19.8619 51.3013 19.9419C51.4963 20.0569 51.6863 20.1719 51.8863 20.2769C52.0363 20.3569 52.0613 20.4419 51.9763 20.5969C51.5863 21.2769 51.0213 21.7069 50.2413 21.8019C49.4913 21.8919 48.7763 21.7919 48.1713 21.2819C47.7513 20.9269 47.4663 20.4869 47.3513 19.9469C47.1613 19.0869 47.2763 18.2869 47.8413 17.5919C48.2663 17.0669 48.8213 16.7719 49.4963 16.7219C49.7863 16.7019 50.0863 16.6969 50.3663 16.7519C51.4513 16.9619 52.1863 17.8569 52.2063 18.9669C52.2213 19.6619 52.2613 19.5669 51.6163 19.5719C51.1913 19.5769 50.7663 19.5719 50.3413 19.5719ZM50.9413 18.6169C50.9613 18.5869 50.9813 18.5619 50.9963 18.5319C50.9163 18.3869 50.8563 18.2169 50.7463 18.0969C50.1813 17.4519 49.1613 17.5669 48.6763 18.3169C48.6313 18.3869 48.6213 18.4819 48.5963 18.5619C48.6713 18.5819 48.7513 18.6169 48.8263 18.6169C49.3763 18.6219 49.9213 18.6219 50.4713 18.6219C50.6313 18.6169 50.7863 18.6169 50.9413 18.6169Z" fill="black"/>
<path d="M39.7412 28.1419C39.7612 27.0869 40.2462 26.2869 41.2262 25.8719C42.1962 25.4569 43.1212 25.6069 43.9212 26.3169C44.8062 27.1019 44.9762 28.4669 44.3212 29.5119C44.1962 29.7069 44.2062 29.8169 44.3712 29.9719C44.6562 30.2419 44.6412 30.2719 44.3362 30.5219C43.9362 30.8569 43.9312 30.8569 43.5712 30.5069C43.4512 30.3869 43.3462 30.3869 43.1962 30.4469C41.7362 31.0069 40.1112 30.2919 39.7812 28.6569C39.7512 28.4919 39.7562 28.3219 39.7412 28.1419ZM43.5112 28.9119C43.8612 28.5669 43.8362 27.7369 43.3912 27.1469C42.9562 26.5719 42.0112 26.4519 41.3562 26.8869C40.7312 27.3069 40.5262 28.2369 40.9112 28.9119C41.2562 29.5219 42.0812 29.8569 42.6462 29.5769C42.5662 29.4769 42.4962 29.3819 42.4112 29.2969C41.8912 28.7719 41.8962 28.7769 42.4762 28.3169C42.6112 28.2069 42.6862 28.2169 42.8062 28.3319C43.0262 28.5319 43.2712 28.7169 43.5112 28.9119Z" fill="black"/>
<path d="M78.9261 15.5169C79.6511 15.5219 79.5511 15.4369 79.5611 16.1619C79.5711 16.9119 79.4661 16.8119 80.2061 16.8169C80.6111 16.8219 80.6161 16.8169 80.6111 17.2119C80.6061 17.9619 80.7061 17.8619 79.9661 17.8719C79.5611 17.8769 79.5611 17.8719 79.5611 18.2919C79.5611 18.8269 79.5561 19.3569 79.5611 19.8919C79.5661 20.5269 79.7911 20.7319 80.4111 20.6719C80.5311 20.6619 80.6011 20.6819 80.6161 20.8169C80.6411 21.0469 80.6911 21.2769 80.6911 21.5119C80.6911 21.5969 80.5911 21.7319 80.5111 21.7519C80.0111 21.8769 79.5011 21.8969 79.0211 21.6769C78.5061 21.4419 78.3161 20.9869 78.3061 20.4569C78.2911 19.7169 78.3011 18.9769 78.3011 18.2369C78.3011 17.8869 78.2961 17.8819 77.9561 17.8819C77.5511 17.8769 77.5511 17.8769 77.5511 17.4819C77.5511 17.4319 77.5511 17.3819 77.5511 17.3319C77.5561 16.8219 77.5011 16.8069 78.0461 16.8269C78.2261 16.8319 78.3061 16.7619 78.3011 16.5769C78.2961 16.3269 78.3111 16.0769 78.2961 15.8269C78.2861 15.6019 78.3711 15.5019 78.6011 15.5219C78.7111 15.5219 78.8211 15.5169 78.9261 15.5169Z" fill="black"/>
<path d="M47.8512 30.302C46.9412 30.817 46.0462 30.732 45.5412 30.117C44.9212 29.362 44.9162 28.257 45.5612 27.542C46.0812 26.967 47.0062 26.762 47.8212 27.357C47.8412 27.117 48.0062 27.102 48.1912 27.107C48.8812 27.117 48.8012 27.037 48.8012 27.727C48.8062 28.567 48.7962 29.412 48.8062 30.252C48.8112 30.492 48.7212 30.587 48.4862 30.567C48.3812 30.557 48.2712 30.567 48.1612 30.567C48.0012 30.567 47.8212 30.592 47.8512 30.302ZM47.8562 28.832C47.8612 28.287 47.4962 27.922 46.9512 27.917C46.3862 27.912 46.0612 28.227 46.0562 28.787C46.0512 29.407 46.3712 29.757 46.9412 29.762C47.4912 29.772 47.8512 29.402 47.8562 28.832Z" fill="black"/>
<path d="M54.2412 27.437C54.2262 27.112 54.4112 27.112 54.6212 27.117C55.2112 27.122 55.1612 27.072 55.1612 27.657C55.1612 28.522 55.1562 29.387 55.1662 30.257C55.1712 30.492 55.0912 30.602 54.8512 30.577C54.7712 30.567 54.6862 30.572 54.6012 30.577C54.3962 30.592 54.2262 30.562 54.2412 30.317C53.9762 30.427 53.7312 30.572 53.4612 30.632C52.4512 30.847 51.4962 30.062 51.4512 29.032C51.4262 28.407 51.5712 27.857 52.0512 27.432C52.6412 26.902 53.5512 26.832 54.2412 27.437ZM53.3162 27.917C52.7262 27.917 52.4062 28.232 52.4062 28.827C52.4062 29.392 52.7662 29.767 53.3112 29.762C53.8212 29.762 54.2362 29.337 54.2412 28.822C54.2462 28.302 53.8512 27.922 53.3162 27.917Z" fill="black"/>
<path d="M109.106 6.567C109.106 7.607 109.106 8.652 109.106 9.692C109.106 10.002 109.086 10.017 108.781 10.017C108.546 10.017 108.316 10.007 108.081 10.017C107.876 10.027 107.801 9.942 107.801 9.737C107.811 9.227 107.801 8.722 107.801 8.212C107.801 6.627 107.801 5.047 107.801 3.462C107.801 3.122 107.811 3.112 108.151 3.112C108.366 3.112 108.586 3.122 108.801 3.107C109.031 3.092 109.106 3.187 109.106 3.412C109.106 4.467 109.106 5.517 109.106 6.567Z" fill="black"/>
<path d="M75.8013 6.56692C75.8013 5.52692 75.8013 4.48692 75.8013 3.44692C75.8013 3.13692 75.8213 3.12192 76.1263 3.11692C76.3613 3.11692 76.5913 3.12192 76.8263 3.11692C76.9963 3.11192 77.0663 3.19192 77.0613 3.36192C77.0563 3.51192 77.0613 3.66192 77.0613 3.81192C77.0613 5.76192 77.0613 7.70692 77.0613 9.65692C77.0613 10.0169 77.0513 10.0219 76.7013 10.0219C76.5013 10.0219 76.3013 10.0119 76.1013 10.0269C75.8713 10.0419 75.7963 9.94192 75.8013 9.71692C75.8063 8.66192 75.8013 7.61692 75.8013 6.56692Z" fill="black"/>
<path d="M77.1112 19.2771C77.1112 19.9921 77.1062 20.7071 77.1162 21.4221C77.1162 21.6321 77.0462 21.7271 76.8262 21.7171C76.6012 21.7071 76.3762 21.7071 76.1512 21.7171C75.9212 21.7321 75.8462 21.6371 75.8462 21.4121C75.8562 20.3571 75.8512 19.2971 75.8512 18.2421C75.8512 17.8721 75.8512 17.8721 75.4762 17.8671C75.1012 17.8671 75.0962 17.8621 75.1012 17.4921C75.1112 16.7171 74.9962 16.8221 75.7762 16.8121C76.1262 16.8071 76.4762 16.8221 76.8262 16.8071C77.0462 16.8021 77.1162 16.8871 77.1162 17.1021C77.1062 17.8321 77.1112 18.5571 77.1112 19.2771Z" fill="black"/>
<path d="M60.1612 19.267C60.1612 19.982 60.1562 20.697 60.1662 21.412C60.1712 21.637 60.0962 21.737 59.8662 21.722C59.6412 21.707 59.4162 21.712 59.1912 21.722C58.9762 21.732 58.8962 21.647 58.9012 21.432C58.9062 20.452 58.9062 19.467 58.9062 18.487C58.9062 18.422 58.9062 18.352 58.9062 18.287C58.9062 17.877 58.9062 17.877 58.4962 17.872C58.1712 17.867 58.1562 17.857 58.1562 17.532C58.1662 16.702 58.0412 16.827 58.8662 16.817C59.2062 16.812 59.5462 16.822 59.8912 16.812C60.0962 16.807 60.1712 16.887 60.1712 17.092C60.1562 17.817 60.1612 18.542 60.1612 19.267Z" fill="black"/>
<path d="M49.6013 28.9021C49.6013 28.6421 49.5963 28.3871 49.6013 28.1271C49.6063 27.9521 49.5413 27.8471 49.3563 27.8721C49.0513 27.9071 49.0463 27.7171 49.0463 27.4971C49.0463 27.2821 49.0413 27.0821 49.3513 27.1171C49.5313 27.1371 49.6113 27.0421 49.6013 26.8671C49.6013 26.8421 49.6013 26.8171 49.6013 26.7921C49.6213 26.6171 49.5913 26.3171 49.6763 26.2821C49.8763 26.1971 50.1263 26.2221 50.3563 26.2371C50.4063 26.2371 50.4863 26.3571 50.4963 26.4271C50.5213 26.5671 50.5113 26.7071 50.5013 26.8521C50.4913 27.0371 50.5613 27.1371 50.7613 27.1221C50.8013 27.1171 50.8463 27.1221 50.8863 27.1221C51.2463 27.1271 51.2513 27.1321 51.2563 27.4821C51.2563 27.8671 51.2563 27.8721 50.8713 27.8721C50.5163 27.8771 50.5113 27.8771 50.5113 28.2371C50.5113 28.6021 50.5063 28.9721 50.5163 29.3371C50.5263 29.7271 50.6563 29.8471 51.0363 29.8271C51.1813 29.8221 51.2613 29.8671 51.2613 30.0171C51.2613 30.0571 51.2613 30.1021 51.2663 30.1421C51.3113 30.5871 51.2563 30.6621 50.8013 30.6671C50.4063 30.6671 49.9963 30.6371 49.7713 30.2471C49.6763 30.0821 49.6363 29.8721 49.6163 29.6821C49.5863 29.4171 49.6063 29.1571 49.6013 28.9021C49.6063 28.9021 49.6063 28.9021 49.6013 28.9021Z" fill="black"/>
<path d="M56.6713 27.4269C56.9263 27.3119 57.1563 27.1819 57.4013 27.0969C57.6413 27.0169 57.7012 27.0769 57.7112 27.3269C57.7112 27.3919 57.7112 27.4619 57.7112 27.5269C57.7112 28.0269 57.7112 28.0269 57.2362 28.1269C56.8962 28.1969 56.6712 28.4869 56.6662 28.8769C56.6612 29.3369 56.6562 29.7919 56.6662 30.2519C56.6712 30.4919 56.5813 30.5719 56.3463 30.5669C55.6263 30.5519 55.7162 30.6419 55.7112 29.9469C55.7062 29.1069 55.7163 28.2669 55.7063 27.4219C55.7013 27.1819 55.7913 27.0819 56.0263 27.1069C56.1013 27.1169 56.1763 27.1119 56.2513 27.1069C56.4913 27.0919 56.7113 27.1019 56.6713 27.4269Z" fill="black"/>
<path d="M69.9412 11.967C69.9262 11.782 69.9112 11.642 69.9062 11.502C69.8862 11.102 70.0812 10.812 70.4262 10.637C70.8112 10.442 71.1962 10.467 71.5662 10.692C71.7012 10.772 71.7262 10.877 71.6312 11.002C71.5762 11.077 71.5362 11.167 71.4662 11.217C71.4012 11.262 71.2812 11.292 71.2262 11.262C71.0412 11.157 70.8812 11.147 70.7212 11.287C70.5912 11.402 70.5362 11.537 70.5962 11.712C70.6712 11.922 70.8362 11.967 71.0312 11.967C71.2212 11.967 71.4162 11.972 71.6062 11.967C71.7862 11.962 71.8662 12.042 71.8562 12.222C71.8512 12.307 71.8812 12.402 71.8462 12.467C71.8062 12.547 71.7212 12.657 71.6512 12.662C71.0362 12.677 70.4212 12.677 69.8062 12.662C69.7362 12.662 69.6662 12.542 69.6062 12.472C69.5862 12.447 69.6012 12.392 69.6012 12.352C69.5912 12.117 69.5962 11.902 69.9412 11.967Z" fill="black"/>
<path d="M77.3111 15.5069C77.3111 16.0169 77.0111 16.3169 76.4811 16.3219C75.9811 16.3269 75.6211 15.9969 75.6161 15.5269C75.6111 15.0619 75.9711 14.7169 76.4661 14.7169C77.0011 14.7119 77.3061 15.0019 77.3111 15.5069Z" fill="black"/>
<path d="M59.5363 14.7119C60.0413 14.7119 60.3713 15.0219 60.3713 15.4969C60.3713 16.0169 60.0513 16.3219 59.5163 16.3169C59.0013 16.3119 58.7013 16.0219 58.7013 15.5169C58.7013 15.0019 59.0013 14.7119 59.5363 14.7119Z" fill="black"/>
<path d="M48.4413 10.8619C48.8563 10.8569 49.1963 11.1619 49.2063 11.5519C49.2163 11.9869 48.8963 12.3119 48.4613 12.3169C48.0413 12.3219 47.7213 12.0069 47.7113 11.5819C47.7013 11.1919 48.0313 10.8669 48.4413 10.8619Z" fill="black"/>
<path d="M89.0062 10.8621C89.4262 10.8621 89.7562 11.1671 89.7562 11.5621C89.7562 11.9971 89.4362 12.3171 89.0012 12.3171C88.5912 12.3171 88.2612 11.9821 88.2612 11.5671C88.2612 11.1771 88.5912 10.8621 89.0062 10.8621Z" fill="black"/>
<path d="M87.7462 4.7221C87.3312 4.7221 87.0212 4.4171 87.0112 4.0021C87.0062 3.6171 87.3562 3.2771 87.7562 3.2771C88.1812 3.2771 88.5062 3.5821 88.5062 3.9871C88.5112 4.4371 88.2162 4.7221 87.7462 4.7221Z" fill="black"/>
<path d="M90.9262 10.8619C91.3712 10.8569 91.6912 11.1519 91.7012 11.5719C91.7112 11.9619 91.3612 12.3069 90.9462 12.3119C90.5412 12.3169 90.2112 11.9969 90.2062 11.5919C90.2012 11.1719 90.5012 10.8669 90.9262 10.8619Z" fill="black"/>
<path d="M84.7763 3.82207C84.3763 3.82207 84.0563 3.49207 84.0563 3.08707C84.0613 2.70207 84.3913 2.37707 84.7813 2.37207C85.2013 2.37207 85.5563 2.69707 85.5563 3.09207C85.5563 3.51707 85.2213 3.82207 84.7763 3.82207Z" fill="black"/>
<path d="M43.9362 3.82192C43.5312 3.82192 43.2112 3.50692 43.2062 3.10192C43.2012 2.71192 43.5512 2.36692 43.9462 2.37692C44.3612 2.38692 44.7012 2.70192 44.7062 3.08692C44.7112 3.50192 44.3812 3.82192 43.9362 3.82192Z" fill="black"/>
<path d="M45.8011 11.5871C45.8011 11.1321 46.0811 10.8621 46.5361 10.8621C46.9811 10.8671 47.2611 11.1471 47.2611 11.5771C47.2561 12.0021 46.9461 12.3121 46.5211 12.3171C46.1111 12.3221 45.8011 12.0071 45.8011 11.5871Z" fill="black"/>
<path d="M42.0262 3.82206C41.5712 3.82206 41.3012 3.54706 41.3062 3.08706C41.3062 2.69206 41.6312 2.37206 42.0212 2.38206C42.4612 2.39206 42.7662 2.69706 42.7662 3.12706C42.7562 3.55706 42.4762 3.82206 42.0262 3.82206Z" fill="black"/>
<path d="M82.8812 3.82195C82.4262 3.82195 82.1512 3.55195 82.1512 3.09195C82.1512 2.69195 82.4612 2.37695 82.8562 2.37695C83.2912 2.37695 83.6062 2.68695 83.6062 3.11195C83.6112 3.54695 83.3312 3.82195 82.8812 3.82195Z" fill="black"/>
<path d="M73.4062 25.6419C73.4062 25.3219 73.6012 25.1169 73.9112 25.1169C74.2462 25.1169 74.4562 25.3169 74.4612 25.6319C74.4612 25.9319 74.2263 26.1719 73.9263 26.1669C73.6163 26.1619 73.4062 25.9469 73.4062 25.6419Z" fill="black"/>
<path d="M75.3062 25.1169C75.6012 25.1169 75.8562 25.3619 75.8512 25.6469C75.8462 25.9269 75.6062 26.1619 75.3212 26.1669C75.0162 26.1719 74.7912 25.9469 74.7862 25.6369C74.7762 25.3519 75.0112 25.1169 75.3062 25.1169Z" fill="black"/>
</svg>
