<svg width="71" height="18" viewBox="0 0 71 18" fill="none" xmlns="http://www.w3.org/2000/svg">
<path d="M17.6115 8.89002C17.5815 13.71 13.6915 17.63 8.84148 17.64C3.95148 17.65 -0.0885248 13.78 0.00147521 8.67002C0.0714752 3.92002 3.87148 0.0200194 8.72148 1.93857e-05C13.7815 -0.00998061 17.5915 3.85002 17.6115 8.89002ZM11.7315 1.11002C11.4615 1.05002 11.3515 0.990019 11.2515 1.01002C10.4115 1.22002 9.55148 1.35002 8.76148 1.68002C7.21148 2.30002 6.03148 3.37002 5.11148 4.79002C3.80148 6.81002 3.64148 10.02 5.38148 11.95C7.23148 14.02 10.3915 14.14 12.2715 12.13C14.1015 10.17 13.8915 6.67002 11.5015 5.37002C11.0515 5.13002 10.5515 4.98002 10.0915 4.75002C9.91148 4.66002 9.65148 4.49002 9.65148 4.36002C9.67148 3.91002 9.72148 3.44002 9.90148 3.03002C10.2515 2.24002 10.7815 1.56002 11.7315 1.11002Z" fill="black"/>
<path d="M38.0914 12.3597C37.4714 12.7597 36.6414 12.8297 35.8014 12.3897C34.7314 11.8297 34.3214 10.8197 34.2314 9.70969C34.1214 8.32969 34.4114 7.06969 35.7114 6.23969C36.3714 5.81969 37.0714 5.81969 37.7814 5.87969C38.2314 5.91969 38.3314 5.75969 38.3114 5.35969C38.2914 4.90969 38.3114 4.45969 38.3114 4.00969C38.3114 3.69969 38.4514 3.54969 38.7614 3.55969C40.3414 3.59969 40.1014 3.24969 40.1114 4.81969C40.1214 7.12969 40.1114 9.44969 40.1114 11.7597C40.1114 12.5397 40.0814 12.5797 39.2914 12.5597C38.9514 12.5497 38.6114 12.4497 38.0914 12.3597ZM38.3114 9.10969H38.3014C38.3014 8.80969 38.3114 8.50969 38.3014 8.20969C38.2714 7.48969 37.9814 7.26969 37.2614 7.40969C36.5714 7.53969 36.1414 7.98969 36.0314 8.67969C35.8714 9.72969 36.1714 10.6297 36.7914 10.9497C37.5414 11.3297 38.3014 10.8797 38.3114 10.0597C38.3114 9.73969 38.3114 9.42969 38.3114 9.10969Z" fill="black"/>
<path d="M68.8815 9.75001C68.4015 9.75001 67.9115 9.74001 67.4315 9.76001C67.2815 9.77001 67.0415 9.81001 67.0015 9.91001C66.9415 10.05 66.9815 10.27 67.0615 10.41C67.3015 10.83 67.7115 11.08 68.1815 11.05C68.7515 11.01 69.3215 10.89 69.8615 10.72C70.1815 10.62 70.3315 10.63 70.4115 10.95C70.4215 10.98 70.4315 11.01 70.4415 11.05C70.8015 12.09 70.7715 12.16 69.6815 12.47C68.7015 12.75 67.6915 12.84 66.7615 12.38C65.4315 11.72 64.9615 10.35 65.0515 9.03C65.1215 7.97 65.4315 7.01001 66.3715 6.36001C67.8115 5.36001 70.5315 5.67001 70.8815 8.30001C70.9215 8.60001 70.9315 8.9 70.9815 9.19C71.0415 9.58 70.8615 9.76001 70.4915 9.76001C69.9615 9.77001 69.4215 9.76001 68.8915 9.76001C68.8815 9.76001 68.8815 9.75001 68.8815 9.75001ZM68.2015 8.37001C68.3815 8.36001 68.5715 8.36001 68.7515 8.36001C69.0115 8.35001 69.1315 8.24001 69.0115 7.97001C68.8215 7.55001 68.4715 7.33001 68.0415 7.30001C67.6715 7.27001 67.0415 7.78001 66.9915 8.11001C66.9815 8.19001 67.1015 8.35001 67.1815 8.36001C67.5115 8.39001 67.8615 8.37001 68.2015 8.37001Z" fill="black"/>
<path d="M64.2115 10.2198C64.2115 10.8398 64.2115 11.4498 64.2115 12.0698C64.2115 12.3998 64.0715 12.5598 63.7315 12.5698C62.2215 12.5898 62.4115 12.6498 62.4015 11.3698C62.3915 10.4398 62.4115 9.49984 62.3815 8.56984C62.3715 8.10984 62.2215 7.66984 61.7315 7.46984C61.2915 7.28984 60.8415 7.35984 60.5315 7.69984C60.3315 7.90984 60.2215 8.27984 60.2115 8.57984C60.1715 9.60984 60.2115 10.6498 60.1815 11.6798C60.1715 11.9598 60.0515 12.4498 59.9015 12.4898C59.4515 12.5898 58.9515 12.5398 58.4815 12.4698C58.3915 12.4598 58.2915 12.1398 58.2915 11.9598C58.2815 10.1498 58.2915 8.32984 58.2815 6.50984C58.2815 6.14984 58.4015 5.94984 58.7615 5.97984C59.2015 6.00984 59.6915 5.78984 60.0815 6.23984C60.1315 6.29984 60.4115 6.19984 60.5715 6.13984C61.4815 5.74984 62.3815 5.67984 63.2415 6.23984C64.0815 6.77984 64.1415 7.66983 64.2015 8.53983C64.2515 9.08983 64.2115 9.65984 64.2115 10.2198Z" fill="black"/>
<path d="M44.6014 12.2398C43.6314 12.7398 42.6914 12.8998 41.7814 12.2398C40.5214 11.3198 40.6414 9.49976 42.0414 8.80976C42.6414 8.51976 43.3414 8.44976 43.9914 8.24976C44.1614 8.19976 44.3014 8.06976 44.4614 7.97976C44.3414 7.79976 44.2714 7.53976 44.1014 7.43976C43.5414 7.08976 43.0014 7.34976 42.5014 7.61976C42.2014 7.77976 41.9614 7.93976 41.7314 7.49976C41.3314 6.71976 41.3114 6.61976 41.7814 6.33976C42.7214 5.78976 43.7414 5.70976 44.7714 5.94976C45.6614 6.14976 46.2514 6.94976 46.2814 7.90976C46.3214 9.32976 46.3114 10.7398 46.3014 12.1598C46.3014 12.2698 46.2014 12.4698 46.1414 12.4698C45.6414 12.4998 45.0614 12.7598 44.6014 12.2398ZM44.5214 10.3098C44.5014 9.65976 44.4614 9.56976 44.1114 9.58976C43.8214 9.60976 43.5114 9.66976 43.2414 9.77976C42.8114 9.95976 42.6014 10.5098 42.8314 10.7998C43.1414 11.1998 43.5814 11.0998 43.9814 11.0098C44.3314 10.9198 44.6414 10.7398 44.5214 10.3098Z" fill="black"/>
<path d="M54.4515 5.85959C56.2015 5.86959 57.5114 7.31959 57.5114 9.22959C57.5114 11.2296 56.1714 12.6796 54.3414 12.6696C52.5314 12.6696 51.1814 11.1896 51.2214 9.18959C51.2514 7.29959 52.4215 5.75959 54.4515 5.85959ZM52.9114 9.25959C53.0614 9.68959 53.1714 10.1396 53.3914 10.5396C53.7614 11.1996 54.7114 11.2596 55.2214 10.6996C55.8714 9.97959 55.8715 8.43959 55.2015 7.74959C54.9115 7.44959 54.5414 7.31959 54.1114 7.42959C53.3914 7.60959 53.0114 8.21959 52.9114 9.25959Z" fill="black"/>
<path d="M30.4415 5.85959C32.3015 5.85959 33.5215 7.21959 33.5215 9.27959C33.5115 11.2496 32.2115 12.6896 30.4315 12.6696C28.6015 12.6596 27.2315 11.2296 27.2815 9.26959C27.3215 7.29959 28.3715 5.75959 30.4415 5.85959ZM31.7515 9.23959C31.7215 8.91959 31.7215 8.73959 31.6915 8.55959C31.6015 8.01959 31.1315 7.49959 30.6415 7.41959C30.1715 7.33959 29.7115 7.43959 29.4515 7.85959C28.9315 8.69959 28.8715 9.57959 29.3715 10.4596C29.7515 11.1396 30.6215 11.2696 31.2015 10.7496C31.6815 10.2996 31.7315 9.70959 31.7515 9.23959Z" fill="black"/>
<path d="M51.3815 5.08995C51.0515 5.04995 50.7915 4.96995 50.5315 4.98995C50.3115 5.00995 50.0615 5.07995 49.9015 5.21995C49.7815 5.31995 49.7515 5.57995 49.7715 5.74995C49.7815 5.83995 50.0115 5.94995 50.1415 5.95995C51.0015 6.03995 50.9715 6.02995 51.0215 6.85995C51.0515 7.34995 50.9015 7.49995 50.4115 7.48995C49.7015 7.46995 49.7015 7.49995 49.7015 8.21995C49.7015 9.46995 49.6915 10.7199 49.7015 11.9599C49.7115 12.4099 49.5315 12.5799 49.0815 12.5799C47.8815 12.5899 47.8815 12.6099 47.8815 11.4299C47.8815 10.3199 47.8715 9.19995 47.8815 8.08995C47.8815 7.72995 47.8415 7.47995 47.3915 7.45995C47.2515 7.44995 47.0715 7.21995 47.0115 7.05995C46.9415 6.88995 46.9915 6.66995 46.9915 6.46995C46.9915 6.16995 47.1215 5.98995 47.4315 5.98995C47.7415 5.98995 47.8715 5.84995 47.8815 5.53995C47.9315 3.56995 49.4015 3.22995 50.8815 3.42995C51.3115 3.48995 51.5615 3.75995 51.4915 4.22995C51.4715 4.49995 51.4215 4.78995 51.3815 5.08995Z" fill="black"/>
<path d="M23.9916 9.88C24.1416 9.48 24.3016 9.09 24.4516 8.69C24.7216 7.97 24.9916 7.26 25.2416 6.54C25.3816 6.14 25.6116 5.97 26.0516 5.97C27.3716 5.97 27.3516 5.94 26.8416 7.15C26.3016 8.43 25.8316 9.74 25.3216 11.03C25.1616 11.45 24.9816 11.86 24.7716 12.26C24.7016 12.4 24.5116 12.53 24.3616 12.55C24.0716 12.59 23.7516 12.59 23.4716 12.53C23.2916 12.49 23.0616 12.34 22.9916 12.18C22.1616 10.24 21.3516 8.28 20.5416 6.33C20.5216 6.27 20.5116 6.2 20.4716 6.01C20.9216 6 21.3316 6.02 21.7416 5.97C22.3016 5.91 22.4316 6.3 22.5816 6.7C22.9316 7.63 23.3016 8.56 23.6716 9.49C23.7216 9.62 23.7916 9.75 23.8516 9.89C23.8916 9.88 23.9416 9.88 23.9916 9.88Z" fill="black"/>
</svg>
