<svg width="76" height="15" viewBox="0 0 76 15" fill="none" xmlns="http://www.w3.org/2000/svg">
<path d="M26.3948 6.80469C26.7932 7.03906 27.2151 7.20312 27.5198 7.50781C28.7151 8.58594 28.4573 10.625 27.051 11.5156C26.4182 11.9141 25.7151 12.0312 25.012 12.0312C23.6292 12.0547 22.2463 12.0312 20.887 12.0547C20.6526 12.0547 20.5588 11.9844 20.5588 11.7266C20.5588 8.63281 20.5588 5.51562 20.5588 2.42187C20.5588 2.16406 20.6526 2.07031 20.9104 2.07031C22.0823 2.07031 23.2307 2.04688 24.4026 2.09375C24.9885 2.11719 25.5745 2.1875 26.1604 2.32813C27.6135 2.67969 28.3635 4.48438 27.637 5.82031C27.426 6.21875 27.0745 6.47656 26.676 6.71094C26.5823 6.73437 26.4885 6.78125 26.3948 6.80469ZM22.6682 9.05469C22.6682 9.42969 22.6448 9.78125 22.6682 10.1562C22.6682 10.25 22.7854 10.3906 22.8557 10.3906C23.6292 10.3906 24.4026 10.3906 25.1526 10.3203C25.4104 10.2969 25.7385 10.1094 25.9026 9.875C26.4651 9.05469 26.0198 7.97656 25.0354 7.83594C24.3088 7.74219 23.5823 7.74219 22.8557 7.74219C22.7854 7.74219 22.6682 7.88281 22.6682 7.97656C22.6448 8.32812 22.6682 8.67969 22.6682 9.05469ZM23.7463 6.125V6.14844C24.1448 6.125 24.5432 6.125 24.9182 6.05469C25.5041 5.9375 25.8088 5.46875 25.7854 4.83594C25.762 4.22656 25.4104 3.80469 24.8245 3.75781C24.1917 3.71094 23.5354 3.71094 22.9026 3.6875C22.7385 3.6875 22.6682 3.75781 22.6682 3.92187C22.6682 4.57812 22.6682 5.23437 22.6682 5.89062C22.6682 6.07812 22.762 6.14844 22.9495 6.14844C23.2073 6.10156 23.4651 6.125 23.7463 6.125Z" fill="black"/>
<path d="M8.01963 10.437C8.53526 10.437 9.12119 10.437 9.70713 10.437C9.96494 10.437 10.0587 10.5307 10.0587 10.7885C10.0587 11.1167 10.0587 11.4682 10.0587 11.7964C10.0587 12.0073 9.96494 12.0776 9.77744 12.0776C9.44932 12.0542 9.09776 12.0307 8.76963 12.0307C7.83213 12.0542 6.89463 12.0776 5.95713 12.101C5.11338 12.1245 4.26963 12.2651 3.42588 12.0776C1.99619 11.7964 1.03526 10.9526 0.496195 9.61667C-0.136618 8.02292 -0.160055 6.40573 0.402445 4.78854C1.01182 3.03073 2.60557 1.88229 4.48057 1.85885C5.25401 1.83542 6.02744 1.90573 6.73057 2.23385C7.80869 2.7026 8.53526 3.52292 8.93369 4.62448C9.49619 6.24167 9.51963 7.85885 8.72276 9.42917C8.51182 9.8276 8.23057 10.1557 8.01963 10.437ZM7.12901 6.87448C7.03526 6.31198 7.01182 5.74948 6.87119 5.21042C6.68369 4.50729 6.30869 3.89792 5.60557 3.61667C4.36338 3.14792 3.16807 3.59323 2.65244 4.83542C2.08994 6.19479 2.13682 7.60104 2.58213 8.98385C2.79307 9.6401 3.19151 10.1792 3.87119 10.437C5.04307 10.8823 6.21494 10.3667 6.70713 9.17135C7.01182 8.46823 7.08213 7.67135 7.12901 6.87448Z" fill="black"/>
<path d="M16.2932 7.01538C16.2932 5.49194 16.2932 3.96851 16.2932 2.46851C16.2932 2.07007 16.2932 2.07007 16.7151 2.07007C17.1838 2.07007 17.6526 2.07007 18.1213 2.07007C18.4963 2.07007 18.4963 2.09351 18.4963 2.44507C18.4963 4.64819 18.4963 6.82788 18.4963 9.03101C18.4963 9.92163 18.4963 10.7888 18.4963 11.6794C18.4963 12.031 18.4729 12.0544 18.1213 12.0544C17.6526 12.0544 17.1604 12.0544 16.6916 12.0544C16.3166 12.0544 16.3167 12.031 16.3167 11.6794C16.2932 10.1091 16.2932 8.56225 16.2932 7.01538Z" fill="black"/>
<path d="M12.0742 7.03857C12.0742 5.4917 12.0742 3.96826 12.0742 2.42139C12.0742 2.06982 12.0977 2.04639 12.4258 2.04639C12.918 2.04639 13.4102 2.04639 13.8789 2.04639C14.1367 2.04639 14.207 2.14014 14.207 2.39795C14.207 5.4917 14.207 8.60889 14.207 11.7026C14.207 11.937 14.1367 12.0308 13.8789 12.0308C13.3867 12.0073 12.8945 12.0073 12.3789 12.0308C12.0977 12.0308 12.0273 11.937 12.0273 11.6792C12.0742 10.1323 12.0742 8.58545 12.0742 7.03857Z" fill="black"/>
<path d="M56.465 5.16382C55.1759 5.16382 53.8868 5.16382 52.5743 5.16382C52.1056 5.16382 52.1056 5.16382 52.1056 4.69507C52.1056 4.55444 52.1056 4.39038 52.1056 4.24976C52.1056 4.08569 52.0822 3.96851 51.8947 3.96851C51.7072 3.96851 51.5665 4.03882 51.5665 4.22632C51.5665 4.62476 51.5665 5.02319 51.5665 5.39819C51.5665 6.21851 51.6603 6.14819 50.84 6.14819C49.9728 6.14819 49.1056 6.14819 48.2618 6.14819C47.5822 6.14819 47.4181 5.98413 47.4181 5.30444C47.4181 4.83569 47.4181 4.34351 47.4181 3.87476C47.4181 3.64038 47.4884 3.54663 47.7228 3.57007C47.7931 3.57007 47.8634 3.57007 47.9103 3.57007C48.1681 3.54663 48.2853 3.66382 48.2618 3.92163C48.2384 4.29663 48.2618 4.67163 48.2618 5.04663C48.2618 5.23413 48.3322 5.30444 48.5197 5.30444C49.1525 5.30444 49.7853 5.30444 50.3947 5.30444C50.5822 5.30444 50.6525 5.21069 50.6525 5.02319C50.6525 4.64819 50.6525 4.29663 50.6993 3.92163C50.7697 3.42944 51.1212 3.12476 51.6134 3.10132C51.965 3.07788 52.3165 3.07788 52.6681 3.05444C52.8556 3.05444 52.9493 3.12476 52.9259 3.31226C52.9259 3.52319 52.9259 3.73413 52.9259 3.96851C52.9025 4.22632 53.0197 4.29663 53.254 4.29663C53.9103 4.29663 54.5665 4.29663 55.2228 4.29663C56.6759 4.29663 58.129 4.29663 59.5822 4.29663C59.9337 4.29663 59.9337 4.27319 59.9572 3.92163C59.9572 3.40601 59.9572 2.89038 59.9572 2.37476C59.9572 2.11694 60.0275 1.99976 60.2853 2.02319C60.3322 2.02319 60.4025 2.02319 60.4493 2.02319C60.7072 1.99976 60.8009 2.11694 60.8009 2.37476C60.7775 3.17163 60.8009 3.94507 60.8009 4.74194C60.8009 5.14038 60.8009 5.14038 60.4025 5.14038C59.1368 5.16382 57.8009 5.16382 56.465 5.16382Z" fill="black"/>
<path d="M49.6211 12.0309C49.1055 12.0309 48.5664 12.0309 48.0508 12.0309C47.582 12.0309 47.3945 11.8434 47.3945 11.3747C47.3945 10.8356 47.3945 10.2966 47.3945 9.73405C47.3945 9.49968 47.4883 9.40592 47.6992 9.42936C47.7695 9.42936 47.8398 9.42936 47.9336 9.42936C48.1914 9.40592 48.2617 9.52311 48.2617 9.75749C48.2383 10.1325 48.2617 10.484 48.2617 10.8591C48.2617 11.0934 48.332 11.1872 48.5664 11.1872C49.1758 11.1872 49.7617 11.1872 50.3711 11.1872C50.6055 11.1872 50.6758 11.0934 50.6758 10.8825C50.6758 10.5544 50.6523 10.2497 50.7227 9.92155C50.8164 9.33561 51.168 9.03092 51.7539 9.00749C52.082 8.98405 52.4102 9.00749 52.7383 9.00749C52.9258 9.00749 52.9961 9.0778 52.9961 9.2653C52.9961 9.49968 52.9961 9.71061 52.9961 9.94499C52.9727 10.1794 53.0898 10.2497 53.3008 10.2497C54.9883 10.2497 56.6758 10.2497 58.3633 10.2497C58.5742 10.2497 58.668 10.1794 58.668 9.94499C58.668 9.4528 58.6914 9.4528 59.1836 9.4528C59.3477 9.4528 59.5117 9.47624 59.6523 9.49968C60.2383 9.56999 60.5195 9.87468 60.5195 10.4372C60.5195 11.5622 60.6836 11.3512 59.6523 11.3747C59.3008 11.3747 58.9492 11.4216 58.6445 11.1403C58.5742 11.07 58.4102 11.0934 58.293 11.0934C56.3711 11.0934 54.4727 11.0934 52.5508 11.0934C52.1289 11.0934 52.1289 11.0934 52.1289 10.6716C52.1289 10.5075 52.1289 10.3434 52.1289 10.1559C52.1289 10.0153 52.1523 9.85124 51.9414 9.85124C51.7305 9.85124 51.5898 9.92155 51.5898 10.1559C51.5898 10.5778 51.5898 10.9762 51.5898 11.3981C51.5898 12.1247 51.6367 12.0309 50.9336 12.0544C50.4883 12.0309 50.043 12.0309 49.6211 12.0309ZM59.3477 10.2262C59.418 10.3669 59.4648 10.484 59.5352 10.6012C59.6055 10.5544 59.6992 10.5309 59.6992 10.484C59.7227 10.2965 59.6055 10.2028 59.3477 10.2262Z" fill="black"/>
<path d="M70.8556 10.2026C70.879 10.0854 70.9024 9.94477 70.9024 9.82759C70.9024 9.59321 70.9727 9.47602 71.2306 9.47602C71.7696 9.47602 71.7696 9.47602 71.7696 10.0151C71.7696 10.2026 71.7696 10.4135 71.7696 10.601C71.7696 10.9526 71.629 11.0698 71.2774 11.0698C71.2306 11.0698 71.1837 11.0698 71.1368 11.0698C67.9259 11.0698 64.7149 11.0698 61.504 11.0698C61.3634 11.0698 61.129 11.0229 61.1056 10.9526C61.0587 10.7416 61.0821 10.5073 61.1056 10.2963C61.1056 10.2729 61.1993 10.226 61.2462 10.226C61.2931 10.2026 61.3399 10.226 61.3868 10.226C62.1368 10.2026 62.1368 10.2026 62.1368 9.42915C62.1368 9.03071 62.1368 8.63227 62.1368 8.2104C62.1368 7.99946 62.2071 7.90571 62.4415 7.90571C63.004 7.88227 63.004 7.88227 63.004 8.44477C63.004 8.93696 63.004 9.42915 63.004 9.94477C63.004 10.1557 63.0743 10.226 63.2852 10.226C65.0196 10.226 66.754 10.226 68.4884 10.226C68.7227 10.226 68.7931 10.1088 68.7931 9.8979C68.7931 9.78071 68.8399 9.54634 68.8868 9.5229C69.0977 9.47602 69.3321 9.49946 69.5431 9.5229C69.5899 9.5229 69.6134 9.7104 69.6368 9.80415C69.6602 9.92134 69.6602 10.062 69.6837 10.1791C69.7306 10.1791 69.754 10.1791 69.8009 10.1791C69.8243 10.062 69.8477 9.96821 69.8477 9.85102C69.8477 9.47602 69.8712 9.47602 70.2462 9.45259C70.2696 9.45259 70.2931 9.45259 70.3399 9.45259C70.6212 9.40571 70.7384 9.5229 70.7149 9.80415C70.7149 9.92134 70.7384 10.0385 70.7618 10.1557C70.7852 10.2026 70.8321 10.2026 70.8556 10.2026Z" fill="black"/>
<path d="M68.9574 5.16363C67.3402 5.16363 65.723 5.16363 64.1058 5.16363C63.9886 5.16363 63.7543 5.11675 63.7543 5.04644C63.7308 4.8355 63.7543 4.60113 63.7777 4.39019C63.7777 4.34331 63.9183 4.31988 63.9886 4.31988C64.1527 4.29644 64.3168 4.31988 64.4574 4.31988C64.5277 4.31988 64.598 4.24956 64.6683 4.22613C64.598 4.15581 64.5511 4.03863 64.4808 4.01519C64.3402 3.96831 64.1761 3.96831 64.0355 3.99175C63.7777 4.01519 63.684 3.898 63.684 3.64019C63.684 3.10113 63.684 3.07769 64.223 3.07769C64.9261 3.07769 65.4886 3.35894 65.559 4.13238C65.559 4.20269 65.6761 4.24956 65.7465 4.29644C65.7933 4.31988 65.8636 4.29644 65.934 4.29644C68.2777 4.29644 70.6215 4.29644 72.9652 4.29644C73.3636 4.29644 73.3636 4.29644 73.3636 3.898C73.3636 3.38238 73.3636 2.86675 73.3636 2.35113C73.3636 2.09331 73.4574 1.99956 73.6918 2.023H73.7152C74.2074 2.023 74.2074 2.023 74.2074 2.51519C74.2074 3.26519 74.2074 4.03863 74.2074 4.78863C74.2074 5.04644 74.1136 5.14019 73.8558 5.14019C72.2386 5.16363 70.598 5.16363 68.9574 5.16363Z" fill="black"/>
<path d="M43.4103 4.67163C43.715 5.11694 43.8087 5.53882 43.715 6.03101C43.6447 6.49976 43.4103 6.92163 43.0822 7.24976C42.004 8.32788 40.879 9.40601 39.8009 10.4841C39.6603 10.6248 39.5665 10.6248 39.4259 10.4841C38.9337 10.0388 38.9103 10.0388 39.4493 9.59351C39.4728 9.57007 39.4962 9.54663 39.5431 9.52319C40.5275 8.56226 41.5118 7.62476 42.4728 6.66382C42.9884 6.14819 43.3868 5.58569 43.3868 4.83569C43.3634 4.78882 43.3868 4.74194 43.4103 4.67163Z" fill="black"/>
<path d="M33.4492 10.7183C32.957 9.9917 32.9804 9.12451 33.4961 8.42139C33.6367 8.23389 33.7773 8.06982 33.9414 7.90576C34.9726 6.89795 35.9804 5.91357 37.0117 4.90576C37.1758 4.7417 37.2695 4.7417 37.4336 4.90576C37.9023 5.37451 37.8789 5.35107 37.3867 5.81982C36.2851 6.85107 35.2304 7.88232 34.1758 8.96045C33.707 9.40576 33.4726 9.9917 33.4492 10.7183Z" fill="black"/>
<path d="M42.2618 3.45312C42.6134 3.96875 42.6837 4.48438 42.5197 5C42.379 5.39844 42.1447 5.82031 41.8634 6.125C40.8322 7.20312 39.7306 8.23438 38.6759 9.28906C38.5353 9.42969 38.4181 9.42969 38.2775 9.28906C37.7618 8.75 37.7618 8.89062 38.2775 8.39844C39.2384 7.46094 40.1993 6.54687 41.1603 5.63281C41.8868 4.85937 42.0509 4.55469 42.2618 3.45312Z" fill="black"/>
<path d="M32.2542 9.47627C31.9495 9.0544 31.8792 8.60909 31.9495 8.14034C32.0198 7.64815 32.2542 7.22627 32.6057 6.89815C33.6839 5.82002 34.7854 4.76534 35.8636 3.68721C35.9807 3.57002 36.0745 3.54659 36.2151 3.68721C36.6839 4.13252 36.6839 4.13252 36.2386 4.57784C35.2542 5.53877 34.2464 6.52315 33.262 7.48409C32.7229 7.99971 32.3011 8.58565 32.3011 9.38252C32.3245 9.38252 32.2776 9.40596 32.2542 9.47627Z" fill="black"/>
<path d="M35.5588 1.50737C35.9807 1.22612 36.426 1.10893 36.8948 1.20268C37.5745 1.31987 38.0901 1.76518 38.5588 2.23393C38.8635 2.53862 39.1448 2.86675 39.4495 3.17143C40.0354 3.78081 40.6213 4.39018 41.2073 4.97612C41.3479 5.11675 41.3479 5.2105 41.2073 5.35112C40.6682 5.86675 40.8323 5.84331 40.3401 5.37456C39.3791 4.41362 38.4416 3.42925 37.4807 2.46831C36.9651 1.95268 36.4026 1.57768 35.6291 1.57768C35.6526 1.55425 35.6292 1.53081 35.5588 1.50737Z" fill="black"/>
<path d="M41.2775 11.4685C40.8322 11.7497 40.4103 11.8669 39.9415 11.7732C39.4259 11.6794 38.9572 11.445 38.5822 11.07C37.5743 10.0622 36.59 9.03097 35.5822 8.02316C35.4415 7.88253 35.4415 7.76535 35.5822 7.62472C36.1447 7.13253 36.004 7.15597 36.4728 7.64816C37.4337 8.63253 38.3947 9.66378 39.379 10.6247C39.8243 11.07 40.3868 11.3982 41.0431 11.3982C41.1368 11.3982 41.1603 11.4216 41.2775 11.4685Z" fill="black"/>
<path d="M34.3634 2.67933C34.8556 2.3512 35.3712 2.23402 35.8634 2.42152C36.2618 2.56214 36.6837 2.77308 36.9884 3.07777C38.0431 4.08558 39.0275 5.14027 40.0587 6.17152C40.1993 6.31214 40.1993 6.40589 40.0353 6.52308C39.5665 6.92152 39.5665 6.94495 39.1212 6.4762C38.2072 5.5387 37.2931 4.62464 36.4025 3.68714C35.8868 3.14808 35.3009 2.7262 34.504 2.7262C34.4572 2.7262 34.4337 2.70277 34.3634 2.67933Z" fill="black"/>
<path d="M40.0354 12.6639C39.5198 13.0154 38.9573 13.0857 38.4182 12.8514C38.0667 12.7107 37.6917 12.4998 37.4338 12.242C36.426 11.2576 35.4417 10.2264 34.4573 9.21856C34.3167 9.07793 34.3167 8.96074 34.4573 8.82012C34.9026 8.32793 34.9026 8.32793 35.3245 8.84356C35.3479 8.89043 35.3948 8.91387 35.4182 8.93731C36.2854 9.82793 37.1292 10.6951 37.9963 11.5857C38.5354 12.1482 39.1682 12.5936 39.9885 12.617C39.9885 12.5936 39.9885 12.617 40.0354 12.6639Z" fill="black"/>
<path d="M35.3245 3.07783C35.2542 3.14814 35.1839 3.24189 35.0901 3.31221C34.1292 4.24971 33.1917 5.16377 32.2307 6.10127C31.387 6.92158 31.2932 7.10908 31.0823 8.30439C30.8011 7.88252 30.6839 7.46064 30.7542 7.03877C30.8245 6.33564 31.2464 5.82002 31.7151 5.35127C32.137 4.92939 32.5823 4.50752 33.0276 4.08564C33.3557 3.75752 33.6839 3.45283 34.012 3.14814C34.387 2.77314 34.8792 2.74971 35.3245 3.07783Z" fill="black"/>
<path d="M40.4103 11.1174C40.9493 10.5315 41.4884 9.94556 42.0509 9.38306C42.6603 8.77368 43.2931 8.18774 43.879 7.55493C44.2775 7.10962 44.5587 6.57056 44.5587 5.91431C44.8165 6.26587 44.9572 6.66431 44.8868 7.13306C44.8165 7.64868 44.6056 8.09399 44.2306 8.44556C43.3165 9.35962 42.379 10.2502 41.465 11.1643C41.254 11.3752 40.7618 11.3518 40.4103 11.1174Z" fill="black"/>
<path d="M41.8165 4.41423C41.7462 4.34392 41.6525 4.29704 41.5822 4.22673C40.6915 3.28923 39.8009 2.35173 38.8868 1.43767C38.3009 0.851731 37.6681 0.382981 36.7775 0.382981C36.965 0.125169 37.5509 -0.0388938 37.9493 0.00798119C38.7697 0.125169 39.3322 0.617356 39.8712 1.17986C40.34 1.67204 40.8322 2.18767 41.3009 2.67986C41.465 2.86736 41.6525 3.05486 41.8165 3.24236C42.1447 3.57048 42.1447 4.06267 41.8165 4.41423Z" fill="black"/>
<path d="M33.8244 9.73413C33.9181 9.82788 33.9884 9.89819 34.0587 9.96851C34.8556 10.7888 35.6525 11.5857 36.4259 12.406C37.0822 13.0857 37.7619 13.7654 38.8165 13.8123C38.2775 14.1873 37.6915 14.2341 37.1056 13.9998C36.7775 13.8591 36.4259 13.6482 36.1681 13.3904C35.3478 12.5935 34.5509 11.7498 33.754 10.9294C33.5197 10.6716 33.5431 10.156 33.8244 9.73413Z" fill="black"/>
<path d="M62.2307 5.16378C62.0432 5.16378 61.8557 5.16378 61.6682 5.16378C61.5041 5.16378 61.4104 5.09347 61.4104 4.9294C61.4104 4.62472 61.4104 4.32003 61.4338 4.01534C61.5041 3.45284 61.8557 3.14815 62.4182 3.07784C63.1213 3.00753 63.1447 3.03097 63.1447 3.71065C63.1447 4.22628 63.1447 4.71847 63.1447 5.23409C63.1447 5.77315 62.8869 6.0544 62.3479 6.14815C62.2072 6.17159 62.0666 6.17159 61.926 6.17159C61.4104 6.17159 61.2697 6.00753 61.4104 5.4919C61.4338 5.42159 61.5744 5.35128 61.6682 5.32784C61.8557 5.3044 62.0432 5.3044 62.2072 5.3044C62.2307 5.25753 62.2307 5.21065 62.2307 5.16378ZM62.3947 3.94503C62.3479 3.94503 62.3244 3.92159 62.2776 3.92159C62.2307 4.03878 62.1838 4.13253 62.1604 4.24972C62.1604 4.29659 62.2072 4.3669 62.2541 4.41378C62.301 4.3669 62.3947 4.34347 62.3947 4.27315C62.4182 4.1794 62.3947 4.06222 62.3947 3.94503Z" fill="black"/>
<path d="M74.2307 9.47618C74.2307 9.89805 74.2307 10.3434 74.2307 10.7652C74.2307 10.9762 74.1604 11.0699 73.926 11.0699C73.4807 11.0699 73.0354 11.0699 72.5666 11.0699C72.3791 11.0699 72.2854 10.9996 72.2854 10.8121C72.2619 10.2262 72.2619 10.2027 72.8479 10.2027C72.8947 10.2027 72.9416 10.2027 72.9885 10.2027C73.2697 10.2496 73.3635 10.1324 73.3635 9.85118C73.34 9.31212 73.3635 8.77305 73.3635 8.25743C73.3635 7.99962 73.4572 7.88243 73.715 7.9293C73.8088 7.9293 73.8791 7.9293 73.9729 7.9293C74.1604 7.9293 74.2307 8.02305 74.2307 8.21055C74.2307 8.63243 74.2307 9.0543 74.2307 9.47618Z" fill="black"/>
<path d="M75.6368 9.49976C75.6368 9.92163 75.6368 10.3435 75.6368 10.7654C75.6368 11.0232 75.5431 11.1169 75.3087 11.0935C75.2853 11.0935 75.2618 11.0935 75.2618 11.0935C74.7931 11.0935 74.7931 11.0935 74.7931 10.6248C74.7931 9.85132 74.7931 9.07788 74.7931 8.30444C74.7931 7.95288 74.8165 7.92944 75.2618 7.92944C75.6368 7.92944 75.6603 7.95288 75.6603 8.30444C75.6603 8.67944 75.6368 9.10132 75.6368 9.49976Z" fill="black"/>
<path d="M75.6368 3.64024C75.6368 4.06212 75.6368 4.46055 75.6368 4.88243C75.6368 5.09337 75.5665 5.18712 75.3556 5.18712C74.7931 5.21055 74.7931 5.21055 74.7931 4.62462C74.7931 3.87462 74.7931 3.14805 74.7931 2.39805C74.7931 2.14024 74.8868 2.02305 75.1447 2.06993C75.1915 2.06993 75.2384 2.06993 75.2853 2.06993C75.6368 2.06993 75.6603 2.09337 75.6603 2.42149C75.6603 2.81993 75.6368 3.21837 75.6368 3.64024Z" fill="black"/>
<path d="M61.926 9.0076C61.926 9.26541 61.926 9.52322 61.926 9.7576C61.926 9.96853 61.8557 10.0388 61.6448 10.0388C61.0588 10.0623 61.0588 10.0623 61.0588 9.47635C61.0588 9.05447 61.0588 8.60916 61.0588 8.18728C61.0588 7.97635 61.1292 7.85916 61.3635 7.8826C61.387 7.8826 61.4104 7.8826 61.4104 7.8826C61.926 7.8826 61.926 7.8826 61.926 8.39822C61.926 8.6326 61.926 8.8201 61.926 9.0076Z" fill="black"/>
<path d="M73.1759 8.98423C73.1759 9.26548 73.1759 9.54673 73.1759 9.82798C73.1759 9.99204 73.1056 10.0624 72.9415 10.0624C72.3556 10.1092 72.3322 10.0858 72.3322 9.49985C72.3322 9.07798 72.3322 8.63267 72.3322 8.21079C72.3322 7.99985 72.4025 7.9061 72.6134 7.92954C72.7072 7.92954 72.7775 7.92954 72.8712 7.92954C73.1056 7.9061 73.1993 8.02329 73.1993 8.25767C73.1525 8.49204 73.1759 8.72642 73.1759 8.98423Z" fill="black"/>
<path d="M49.4808 6.40569C49.5745 6.35882 49.6449 6.26507 49.7152 6.26507C49.8792 6.2885 50.0667 6.31194 50.137 6.40569C50.2074 6.49944 50.1839 6.71038 50.137 6.82757C50.0667 6.99163 49.8558 7.0385 49.6917 6.94475C49.5511 6.851 49.4339 6.82757 49.2699 6.94475C49.1058 7.06194 48.9183 7.01507 48.8245 6.851C48.7542 6.73382 48.7542 6.52288 48.8011 6.38225C48.8949 6.21819 49.0824 6.17132 49.2699 6.26507C49.3402 6.31194 49.4105 6.35882 49.4808 6.40569Z" fill="black"/>
<path d="M49.4806 12.6404C49.1993 12.8748 48.9884 12.8982 48.8243 12.7107C48.6837 12.5466 48.6837 12.3591 48.8243 12.1951C48.9884 12.0076 49.1759 12.031 49.4572 12.2654C49.7853 12.031 49.9962 12.0076 50.1368 12.1951C50.254 12.3591 50.254 12.5466 50.1134 12.7107C49.9259 12.8982 49.7618 12.8982 49.4806 12.6404Z" fill="black"/>
<path d="M73.0586 11.8904C73.0821 12.0076 73.1993 12.1951 73.1289 12.2889C73.0586 12.406 72.8711 12.4529 72.7071 12.4764C72.2852 12.4998 72.1914 12.3592 72.3789 11.9607C72.4024 11.8904 72.4024 11.8201 72.4024 11.7498C72.4258 11.6326 72.4258 11.492 72.4961 11.4451C72.6133 11.3514 72.7774 11.3045 72.9414 11.2576C72.9883 11.2342 73.1289 11.3279 73.1289 11.3748C73.1289 11.5389 73.0821 11.7264 73.0586 11.8904Z" fill="black"/>
</svg>
