<svg width="85" height="23" viewBox="0 0 85 23" fill="none" xmlns="http://www.w3.org/2000/svg">
<path d="M58.48 15.0809C58.76 15.0809 58.98 15.0809 59.26 15.0809C59.26 16.0209 59.26 16.9209 59.26 17.8409C59.26 18.9209 59.26 18.9209 60.38 18.9209C60.7 18.9209 61.04 18.9209 61.42 18.9209C61.42 17.6009 61.42 16.3609 61.42 15.0809C61.7 15.0809 61.92 15.0809 62.2 15.0809C62.2 16.0009 62.2 16.9009 62.2 17.8209C62.2 18.9209 62.2 18.9209 63.3 18.9209C64.38 18.9209 64.38 18.9209 64.38 17.8409C64.38 16.9209 64.38 16.0209 64.38 15.0609C64.64 15.0609 64.86 15.0609 65.12 15.0609C65.12 16.5209 65.12 17.9809 65.12 19.4609C51.08 19.4609 37.08 19.4609 23.02 19.4609C23.02 17.4609 23.02 15.4809 23.02 13.4609C23.26 13.4609 23.48 13.4609 23.74 13.4609C23.74 13.6409 23.76 13.8209 23.76 14.0009C23.76 15.4609 23.78 16.9409 23.76 18.4009C23.76 18.8009 23.9 18.9009 24.28 18.9009C28.54 18.8809 32.82 18.8809 37.08 18.9009C37.52 18.9009 37.6 18.7609 37.6 18.3609C37.58 17.2609 37.6 16.1609 37.6 15.0409C37.86 15.0409 38.08 15.0409 38.38 15.0409C38.38 15.3609 38.38 15.6809 38.38 16.0009C38.38 16.8209 38.36 17.6409 38.4 18.4409C38.4 18.5809 38.56 18.8609 38.66 18.8609C39.62 18.9009 40.58 18.8809 41.58 18.8809C41.58 17.5809 41.58 16.3209 41.58 15.0409C41.84 15.0409 42.06 15.0409 42.36 15.0409C42.36 15.6409 42.36 16.2409 42.36 16.8609C42.36 17.4009 42.34 17.9609 42.38 18.5009C42.38 18.6209 42.54 18.8609 42.64 18.8609C43.66 18.8809 44.7 18.8809 45.78 18.8809C45.78 17.5609 45.78 16.3209 45.78 15.0409C46.06 15.0409 46.26 15.0409 46.54 15.0409C46.54 15.2009 46.56 15.3809 46.56 15.5609C46.56 16.4809 46.58 17.4009 46.56 18.3009C46.54 18.7409 46.66 18.9009 47.14 18.9009C49.16 18.8809 51.18 18.8809 53.18 18.8809C54.74 18.8809 56.32 18.8809 57.88 18.8809C58.06 18.8809 58.24 18.8809 58.48 18.8809C58.48 17.6209 58.48 16.3609 58.48 15.0809Z" fill="black"/>
<path d="M81.32 5.20091C82.48 6.86091 83.62 8.52091 84.78 10.2009C84.22 10.3209 83.84 10.2409 83.48 9.82091C82.26 8.42091 80.98 7.06091 79.74 5.66091C79.48 5.38091 79.22 5.26091 78.84 5.26091C77.86 5.28091 76.88 5.26091 75.84 5.26091C75.84 6.24091 75.84 7.18091 75.84 8.12091C75.26 8.12091 74.76 8.12091 74.22 8.12091C74.22 5.48091 74.22 2.86091 74.22 0.220908C74.36 0.200908 74.5 0.180908 74.64 0.180908C76.52 0.180908 78.4 0.180908 80.28 0.180908C81.76 0.180908 82.74 0.860908 83.02 2.04091C83.36 3.42091 82.84 4.48091 81.56 5.06091C81.5 5.08091 81.42 5.14091 81.32 5.20091ZM75.88 1.74091C75.88 2.44091 75.88 3.08091 75.88 3.74091C77.44 3.74091 78.96 3.76091 80.46 3.72091C81.1 3.70091 81.4 3.36091 81.42 2.80091C81.44 2.20091 81.12 1.76091 80.48 1.74091C78.96 1.70091 77.44 1.74091 75.88 1.74091Z" fill="black"/>
<path d="M13.38 6.92099C13.72 6.48099 14 6.12099 14.3 5.74099C14.68 5.92099 15.06 6.12099 15.44 6.28099C16.72 6.84099 18.06 7.00099 19.44 6.76098C19.66 6.72098 19.9 6.64099 20.1 6.56099C20.48 6.40098 20.82 6.14099 20.78 5.68099C20.74 5.20099 20.36 5.02098 19.94 4.96098C19.34 4.86098 18.72 4.82098 18.1 4.76098C17.14 4.64099 16.18 4.54098 15.24 4.36098C14.44 4.20098 13.9 3.72098 13.78 2.86098C13.66 1.96098 13.98 1.26099 14.72 0.760985C15.58 0.140985 16.56 0.020985 17.58 0.000984964C19.22 -0.019015 20.76 0.260985 22.16 1.26099C21.88 1.58099 21.62 1.92099 21.32 2.18099C21.22 2.28099 20.92 2.26099 20.76 2.18099C19.38 1.56099 17.94 1.30098 16.42 1.60098C16 1.68098 15.48 1.78098 15.48 2.32099C15.48 2.86099 16 2.90098 16.4 2.96098C17.38 3.08098 18.36 3.12098 19.32 3.26098C19.9 3.34098 20.5 3.46098 21.06 3.66098C21.9 3.94098 22.42 4.54099 22.48 5.46098C22.54 6.34098 22.24 7.10099 21.46 7.54099C20.98 7.82099 20.44 8.06098 19.9 8.16098C17.98 8.52098 16.08 8.42099 14.3 7.54099C14.02 7.38099 13.72 7.14099 13.38 6.92099Z" fill="black"/>
<path d="M40.7798 1.70111C40.7798 2.24111 40.7798 2.70111 40.7798 3.22111C42.2398 3.22111 43.6598 3.22111 45.1998 3.22111C45.1998 3.70111 45.2198 4.12111 45.1798 4.54111C45.1798 4.64111 44.9198 4.76111 44.7798 4.76111C43.6398 4.78111 42.5198 4.78111 41.3798 4.78111C41.1998 4.78111 41.0198 4.78111 40.7998 4.78111C40.7998 5.40111 40.7998 5.96111 40.7998 6.60111C42.9998 6.60111 45.1998 6.60111 47.4198 6.60111C47.4198 7.12111 47.4198 7.58111 47.4198 8.08111C44.6598 8.08111 41.8998 8.08111 39.1198 8.08111C39.0998 7.90111 39.0998 7.76111 39.0998 7.62111C39.0998 5.30111 39.0998 2.98111 39.0798 0.681113C39.0798 0.261113 39.1798 0.141113 39.5998 0.141113C41.9398 0.161113 44.2998 0.141113 46.6398 0.161113C46.7798 0.161113 46.9398 0.181113 47.0998 0.181113C47.0998 0.681113 47.0998 1.16111 47.0998 1.68111C45.0198 1.70111 42.9398 1.70111 40.7798 1.70111Z" fill="black"/>
<path d="M27.2601 0.180908C28.0801 0.180908 28.8201 0.180908 29.5401 0.180908C31.0201 0.200908 32.5001 0.140908 33.9801 0.260908C35.4201 0.360908 36.2201 1.42091 36.1801 2.90091C36.1401 4.22091 35.2601 5.14091 33.8601 5.22091C32.5001 5.28091 31.1401 5.26091 29.7601 5.26091C28.7401 5.26091 28.9001 5.18091 28.9001 6.14091C28.9001 6.76091 28.8801 7.38091 28.8801 7.98091C28.8801 8.00091 28.8601 8.04091 28.8001 8.14091C28.4001 8.14091 27.9801 8.14091 27.5401 8.14091C27.2001 8.14091 27.2601 7.88091 27.2601 7.68091C27.2601 6.14091 27.2601 4.62091 27.2601 3.08091C27.2601 2.14091 27.2601 1.20091 27.2601 0.180908ZM28.9201 3.70091C29.0001 3.72091 29.0601 3.74091 29.1401 3.74091C30.5801 3.74091 32.0001 3.76091 33.4401 3.74091C34.2401 3.72091 34.6001 3.30091 34.5201 2.58091C34.4601 2.06091 34.0801 1.74091 33.4001 1.72091C32.4401 1.70091 31.4801 1.72091 30.5001 1.72091C29.9801 1.72091 29.4801 1.72091 28.9401 1.72091C28.9201 2.42091 28.9201 3.04091 28.9201 3.70091Z" fill="black"/>
<path d="M0 8.10076C0.08 7.94076 0.14 7.80076 0.2 7.66076C1.44 5.30076 2.7 2.96076 3.92 0.600758C4.08 0.300758 4.28 0.220758 4.6 0.160758C5.62 0.000757843 6.16 0.420758 6.6 1.34076C7.64 3.48076 8.8 5.54076 9.9 7.62076C9.98 7.76076 10.04 7.92076 10.16 8.14076C9.56 8.14076 9.02 8.16076 8.48 8.12076C8.36 8.12076 8.22 7.92076 8.18 7.78076C7.86 6.62076 7.1 6.30076 5.94 6.44076C5 6.54076 4.04 6.48076 3.1 6.46076C2.76 6.46076 2.52 6.54076 2.4 6.88076C2.38 6.92076 2.36 6.96076 2.34 7.02076C1.7 8.28076 1.52 8.36076 0 8.10076ZM6.66 4.92076C6.12 3.90076 5.62 2.94076 5.06 1.88076C4.5 2.94076 3.98 3.92076 3.46 4.92076C4.56 4.92076 5.58 4.92076 6.66 4.92076Z" fill="black"/>
<path d="M71.4 8.16088C70.82 8.16088 70.34 8.18088 69.86 8.16088C69.74 8.16088 69.62 8.04088 69.5 7.96088C69.46 7.94088 69.44 7.88088 69.44 7.82088C69.12 6.64088 68.36 6.30088 67.18 6.44088C66.22 6.56088 65.24 6.48088 64.28 6.46088C64 6.46088 63.8 6.54088 63.7 6.82088C63.68 6.86088 63.66 6.92088 63.64 6.96088C62.92 8.34088 62.92 8.34088 61.24 8.14088C61.32 7.98088 61.38 7.84088 61.46 7.70088C62.7 5.34088 63.96 3.00088 65.18 0.640877C65.36 0.300877 65.58 0.260877 65.92 0.200877C66.9 0.0608766 67.42 0.440877 67.84 1.34088C68.88 3.48088 70.04 5.56088 71.16 7.66088C71.22 7.76088 71.28 7.92088 71.4 8.16088ZM66.32 1.88088C65.76 2.94088 65.24 3.90088 64.7 4.92088C65.82 4.92088 66.82 4.92088 67.92 4.92088C67.38 3.90088 66.88 2.94088 66.32 1.88088Z" fill="black"/>
<path d="M50.22 1.72093C50.22 1.18093 50.22 0.720928 50.22 0.200928C53.52 0.200928 56.82 0.200928 60.14 0.200928C60.14 0.700928 60.14 1.16093 60.14 1.70093C58.76 1.70093 57.38 1.70093 55.96 1.70093C55.96 3.86093 55.96 5.96093 55.96 8.10093C55.44 8.10093 54.96 8.10093 54.42 8.10093C54.42 5.96093 54.42 3.86093 54.42 1.70093C53 1.72093 51.62 1.72093 50.22 1.72093Z" fill="black"/>
<path d="M19.7 21.9808C20.16 21.3008 20.62 20.6408 21.04 19.9608C21.18 19.7208 21.28 19.4208 21.3 19.1408C21.32 17.8208 21.32 16.4808 21.32 15.1208C21.58 15.1208 21.8 15.1208 22.06 15.1208C22.08 15.2408 22.1 15.3608 22.1 15.4808C22.1 16.7408 22.12 18.0008 22.08 19.2808C22.08 19.5408 21.96 19.8408 21.8 20.0408C21.28 20.6808 20.74 21.2808 20.18 21.8808C20.08 21.9808 19.94 22.0408 19.8 22.1208C19.76 22.0608 19.72 22.0208 19.7 21.9808Z" fill="black"/>
<path d="M42.0001 20.4611C42.3201 20.2211 42.6801 20.0811 42.9801 20.4411C43.0601 20.5411 43.0401 20.8611 42.9401 20.9611C42.6401 21.2611 42.3001 21.1411 42.0001 20.9011C41.6801 21.1211 41.3401 21.3011 41.0201 20.9411C40.9201 20.8411 40.9201 20.5211 41.0201 20.4211C41.3201 20.0811 41.6801 20.2411 42.0001 20.4611Z" fill="black"/>
<path d="M38.0399 14.001C37.9399 14.061 37.8399 14.181 37.7399 14.181C37.5199 14.161 37.2599 14.141 37.0599 14.041C36.9799 14.001 36.9599 13.641 37.0399 13.581C37.1999 13.461 37.4799 13.341 37.6399 13.401C37.9199 13.501 38.0999 13.521 38.3999 13.401C38.5599 13.341 38.8599 13.481 39.0399 13.601C39.0999 13.641 39.0799 13.981 39.0199 14.021C38.8199 14.121 38.5799 14.181 38.3599 14.201C38.2799 14.181 38.1599 14.061 38.0399 14.001Z" fill="black"/>
<path d="M46.1799 20.021C46.4399 20.341 46.5999 20.521 46.7399 20.701C46.5599 20.841 46.3599 21.081 46.1599 21.101C45.9999 21.121 45.6999 20.861 45.6799 20.701C45.6999 20.521 45.9399 20.341 46.1799 20.021Z" fill="black"/>
</svg>
