<svg width="106" height="19" viewBox="0 0 106 19" fill="none" xmlns="http://www.w3.org/2000/svg">
<path d="M78.663 14.0892C76.913 14.0892 75.2005 14.1017 73.5005 14.0767C73.363 14.0767 73.1505 13.8767 73.088 13.7267C72.938 13.3142 72.838 12.8892 72.763 12.4642C72.7005 12.1017 72.538 11.9267 72.138 11.9392C71.1755 11.9517 70.2255 11.9642 69.263 11.9392C68.888 11.9267 68.763 12.1142 68.6755 12.4267C68.513 12.9767 68.4755 13.7142 68.1005 14.0017C67.7505 14.2767 67.0255 14.0892 66.463 14.0892C63.963 14.0892 61.463 14.0767 58.963 14.1017C58.5505 14.1017 58.338 13.9767 58.1505 13.6017C57.263 11.8142 56.338 10.0392 55.3255 8.26423C55.3255 9.55173 55.2755 10.8392 55.338 12.1142C55.4255 14.0892 55.463 14.0892 53.5005 14.0892C52.5255 14.0892 51.538 14.0767 50.563 14.0892C50.163 14.1017 50.0005 13.9642 50.0005 13.5517C50.013 9.33923 50.0005 5.13923 50.013 0.926734C50.013 0.751734 50.2005 0.439234 50.3005 0.439234C51.938 0.401734 53.5755 0.414234 55.288 0.414234C55.288 2.31423 55.288 4.13923 55.288 5.95173C55.3255 5.96423 55.363 5.97673 55.4005 5.97673C56.0755 4.53923 56.8255 3.12673 57.413 1.65173C57.8005 0.689234 58.2755 0.276734 59.363 0.364234C60.7505 0.489234 62.1505 0.389234 63.6755 0.389234C63.538 0.689234 63.4505 0.901734 63.338 1.10173C62.3505 2.83923 61.3755 4.58923 60.3755 6.31423C60.1755 6.66423 60.1755 6.91423 60.3755 7.27673C61.288 8.81423 62.1505 10.3892 63.038 11.9392C63.163 12.1517 63.288 12.3517 63.488 12.6767C63.9255 11.3267 64.313 10.1142 64.7005 8.88923C65.538 6.25173 66.3755 3.61423 67.188 0.976734C67.3255 0.551734 67.513 0.376734 67.9755 0.389234C69.938 0.414234 71.888 0.414234 73.8505 0.401734C74.1755 0.401734 74.388 0.464234 74.5005 0.826734C75.863 5.15173 77.2505 9.47673 78.6255 13.8017C78.688 13.8767 78.663 13.9392 78.663 14.0892ZM71.8255 8.48923C71.488 6.86423 71.1755 5.30173 70.8505 3.73923C70.813 3.73923 70.7755 3.73923 70.738 3.73923C70.388 5.30173 70.0255 6.86423 69.663 8.47673C70.413 8.48923 71.063 8.48923 71.8255 8.48923Z" fill="black"/>
<path d="M9.02555 0.426904C11.7505 0.426904 14.4755 0.439404 17.2005 0.414404C17.8005 0.401904 17.9255 0.626904 17.9255 1.1644C17.913 6.6644 17.913 12.1644 17.9255 17.6519C17.9255 18.1769 17.8006 18.3769 17.2255 18.3769C15.3755 18.3394 13.5255 18.3394 11.663 18.3769C11.0505 18.3894 10.938 18.1644 10.9505 17.6144C10.9755 14.4644 10.9505 11.3269 10.9755 8.1769C10.9755 7.5769 10.8005 7.4019 10.2005 7.4019C7.07555 7.4269 3.95055 7.4144 0.838048 7.4144C0.0130484 7.4144 0.0130484 7.4144 0.0130484 6.5894C0.0130484 4.7519 0.0255483 2.9269 0.000548331 1.0894C-0.0119517 0.526904 0.188048 0.389404 0.725548 0.389404C3.48805 0.439404 6.26305 0.426904 9.02555 0.426904Z" fill="black"/>
<path d="M23.363 14.1017C23.813 12.6392 24.238 11.2892 24.663 9.95174C25.6005 6.97674 26.563 4.00174 27.488 1.02674C27.6255 0.564238 27.838 0.414238 28.313 0.426738C30.2505 0.451738 32.188 0.439238 34.1255 0.439238C34.4755 0.439238 34.688 0.514238 34.813 0.889238C36.1505 5.13924 37.5005 9.37674 38.8505 13.6142C38.888 13.7267 38.9005 13.8517 38.9255 14.0017C38.8255 14.0392 38.763 14.0892 38.688 14.0892C37.063 14.1017 35.438 14.1142 33.813 14.0767C33.638 14.0767 33.4005 13.8517 33.3255 13.6767C33.163 13.2767 33.0755 12.8392 33.0005 12.4142C32.938 12.0392 32.738 11.9392 32.4005 11.9517C31.438 11.9642 30.488 11.9642 29.5255 11.9517C29.163 11.9392 29.013 12.1017 28.938 12.4392C28.8005 12.9767 28.788 13.7267 28.4255 13.9892C28.038 14.2767 27.313 14.1142 26.738 14.1142C25.663 14.1017 24.588 14.1017 23.363 14.1017ZM32.088 8.48924C31.763 6.87674 31.438 5.31424 31.1255 3.76424C31.088 3.76424 31.0505 3.75174 31.013 3.75174C30.6505 5.31424 30.3005 6.87674 29.9255 8.48924C30.6755 8.48924 31.3255 8.48924 32.088 8.48924Z" fill="black"/>
<path d="M83.3255 9.81439C83.6005 10.9644 84.0005 11.3519 84.788 11.3019C85.3755 11.2644 85.8505 10.8769 85.9005 10.3894C85.9755 9.78939 85.6005 9.50189 85.113 9.35189C83.888 8.96439 82.6505 8.60189 81.413 8.23939C79.538 7.68939 78.6005 6.66439 78.488 5.02689C78.3505 2.97689 79.163 1.47689 80.9505 0.764391C83.513 -0.260609 86.1255 -0.285609 88.6505 0.876891C90.038 1.51439 90.5755 2.75189 90.588 4.36439C90.113 4.36439 89.663 4.36439 89.2255 4.36439C88.2255 4.36439 87.2255 4.37689 86.2255 4.35189C86.0505 4.33939 85.8005 4.15189 85.7255 3.98939C85.388 3.26439 84.388 2.97689 83.738 3.46439C83.313 3.78939 83.3005 4.33939 83.788 4.58939C84.2255 4.81439 84.7255 4.92689 85.2005 5.07689C86.2755 5.41439 87.363 5.67689 88.413 6.07689C90.2005 6.75189 91.013 7.93939 91.038 9.71439C91.0505 11.5769 90.113 13.1144 88.4505 13.7769C86.063 14.7269 83.6005 14.7394 81.163 14.0144C79.388 13.4894 78.263 11.9769 78.238 10.3519C78.238 10.0644 78.263 9.85189 78.613 9.85189C80.188 9.81439 81.738 9.81439 83.3255 9.81439Z" fill="black"/>
<path d="M91.238 9.81423C92.3255 9.81423 93.313 9.81423 94.313 9.81423C94.813 9.81423 95.313 9.83923 95.813 9.80173C96.213 9.77673 96.388 9.86423 96.4755 10.3142C96.6505 11.2767 97.8505 11.6267 98.588 10.9767C99.213 10.4267 99.063 9.66423 98.2255 9.37673C97.163 9.01423 96.0755 8.72673 95.0005 8.40173C94.6005 8.27673 94.2005 8.15173 93.813 8.02673C90.813 7.03923 90.9255 2.88923 92.863 1.40173C93.8755 0.626732 95.038 0.289232 96.2755 0.139232C98.013 -0.085768 99.738 0.014232 101.363 0.701732C102.726 1.27673 103.476 2.32673 103.576 3.83923C103.601 4.21423 103.488 4.36423 103.088 4.36423C101.801 4.35173 100.501 4.37673 99.213 4.33923C99.038 4.33923 98.8005 4.12673 98.7255 3.95173C98.4005 3.21423 97.288 2.92673 96.688 3.46423C96.2005 3.88923 96.388 4.48923 97.113 4.72673C97.9505 4.98923 98.8005 5.16423 99.638 5.42673C100.388 5.66423 101.138 5.91423 101.863 6.22673C104.813 7.48923 104.576 11.7392 102.263 13.2642C100.888 14.1767 99.3255 14.4517 97.738 14.4267C96.5255 14.4017 95.2755 14.2392 94.113 13.9142C92.613 13.5017 91.6255 12.4392 91.313 10.8642C91.2505 10.5517 91.263 10.2267 91.238 9.81423Z" fill="black"/>
<path d="M39.1379 7.23936C39.1379 5.17686 39.1504 3.11436 39.1254 1.05186C39.1129 0.539356 39.2754 0.414356 39.7629 0.426856C41.1379 0.451856 42.5129 0.464356 43.8879 0.426856C44.4254 0.414356 44.5629 0.614356 44.5629 1.11436C44.5504 3.95186 44.5754 6.77685 44.5379 9.61436C44.5254 10.2269 44.7254 10.4019 45.3129 10.3769C46.4754 10.3394 47.6504 10.3769 48.8129 10.3519C49.2879 10.3394 49.4754 10.4894 49.4504 11.0019C49.4129 11.8769 49.4254 12.7519 49.4379 13.6269C49.4379 13.9769 49.3129 14.1019 48.9629 14.1019C45.8379 14.0894 42.7129 14.0894 39.6004 14.1019C39.1129 14.1019 39.1504 13.8019 39.1504 13.4894C39.1379 11.4019 39.1379 9.31435 39.1379 7.23936Z" fill="black"/>
<path d="M90.4379 16.5017C90.4129 17.1142 90.3879 17.6642 90.3504 18.2142C90.2629 18.2142 90.1629 18.2142 90.0754 18.2017C90.0754 17.5017 90.0754 16.8017 90.0754 16.1017C90.2629 16.1142 90.5254 16.0517 90.6379 16.1517C91.1004 16.6017 91.5129 17.0892 92.0254 17.6517C92.0504 17.0392 92.0879 16.5142 92.1129 16.0017C92.1879 16.0017 92.2629 16.0017 92.3379 16.0017C92.3379 16.7267 92.3379 17.4517 92.3379 18.2767C91.5004 17.8642 91.1629 17.0142 90.4379 16.5017Z" fill="black"/>
<path d="M88.1879 15.9893C88.1879 16.7143 88.1879 17.4518 88.1879 18.1768C88.1379 18.2143 88.1004 18.2643 88.0504 18.3018C87.4754 17.6893 86.9004 17.0768 86.2004 16.3393C86.2004 17.0643 86.2004 17.6143 86.2004 18.1768C86.1504 18.1893 86.0879 18.1893 86.0379 18.2018C85.9879 18.0893 85.9004 17.9768 85.9004 17.8643C85.8879 17.3643 85.8754 16.8643 85.9004 16.3768C85.9004 16.2393 86.0004 16.0143 86.0879 15.9893C86.2129 15.9643 86.4004 16.0518 86.5004 16.1518C86.9379 16.6018 87.3504 17.0643 87.8504 17.6143C87.8879 17.0018 87.9254 16.4893 87.9629 15.9768C88.0379 15.9893 88.1129 15.9893 88.1879 15.9893Z" fill="black"/>
<path d="M49.0379 17.6643C49.4754 17.7768 49.8629 17.9268 50.2504 17.9393C50.4629 17.9518 50.6879 17.7393 50.9129 17.6268C50.7129 17.5018 50.5254 17.3267 50.3004 17.2642C50.0129 17.1642 49.6754 17.2017 49.4004 17.0892C49.0129 16.9267 48.9004 16.6017 49.1879 16.2392C49.6129 15.7142 50.7879 15.8392 51.1754 16.5142C50.7754 16.4142 50.4129 16.2768 50.0504 16.2518C49.8504 16.2393 49.6379 16.4267 49.4254 16.5142C49.6129 16.6392 49.7754 16.8018 49.9754 16.8768C50.2254 16.9643 50.5379 16.9017 50.7629 17.0142C50.9754 17.1142 51.2379 17.3517 51.2629 17.5517C51.2754 17.7517 51.0629 18.0393 50.8629 18.1643C50.2129 18.5268 49.3004 18.2768 49.0379 17.6643Z" fill="black"/>
<path d="M101.288 17.6268C101.851 17.7643 102.226 17.9143 102.626 17.9268C102.826 17.9393 103.038 17.7018 103.251 17.5893C103.051 17.4768 102.876 17.3143 102.663 17.2518C102.388 17.1643 102.076 17.2018 101.813 17.0893C101.638 17.0143 101.426 16.7893 101.413 16.6143C101.401 16.4393 101.563 16.1893 101.726 16.0768C102.263 15.7018 103.151 15.8893 103.538 16.4893C103.388 16.4768 103.276 16.4768 103.188 16.4393C103.038 16.3893 102.876 16.2268 102.738 16.2518C102.413 16.2893 102.101 16.4018 101.788 16.4893C102.051 16.6268 102.313 16.7643 102.563 16.9143C102.576 16.9268 102.601 16.9143 102.626 16.9268C103.088 16.9768 103.601 16.9768 103.626 17.6143C103.651 18.0143 103.088 18.3643 102.476 18.3268C102.038 18.2893 101.588 18.2018 101.288 17.6268Z" fill="black"/>
<path d="M42.4131 16.5017C42.2631 16.4767 42.1506 16.4767 42.0506 16.4392C41.9006 16.3892 41.7381 16.2392 41.6006 16.2517C41.2756 16.2892 40.9631 16.4017 40.6506 16.4892C40.9131 16.6267 41.1756 16.7642 41.4381 16.9017C41.4756 16.9142 41.5256 16.9142 41.5631 16.9142C42.0006 16.9642 42.4756 16.9892 42.5256 17.5767C42.5631 17.9767 42.0631 18.2892 41.4506 18.3017C40.8256 18.3142 40.4631 18.1267 40.2131 17.5767C40.4006 17.6517 40.5131 17.6892 40.6256 17.7267C40.8506 17.8017 41.1006 17.9517 41.3131 17.9267C41.5881 17.9017 41.8506 17.7392 42.1256 17.6267C41.8881 17.4892 41.6506 17.3267 41.4006 17.2267C41.1506 17.1392 40.8631 17.1517 40.6131 17.0517C40.2006 16.8892 40.1381 16.4517 40.4381 16.1392C40.8631 15.7142 42.0006 15.8767 42.4131 16.5017Z" fill="black"/>
<path d="M70.6881 16.5393C70.2256 16.4143 69.8881 16.2643 69.5381 16.2393C69.3131 16.2268 69.0881 16.4268 68.8506 16.5268C69.0381 16.6393 69.2256 16.8018 69.4381 16.8643C69.6881 16.9393 70.0006 16.8893 70.2256 17.0018C70.4381 17.1018 70.7131 17.3393 70.7256 17.5393C70.7381 17.7393 70.5131 18.0393 70.3131 18.1518C69.6256 18.5393 68.7131 18.2643 68.5131 17.6643C68.9006 17.7643 69.2756 17.9268 69.6631 17.9393C69.9006 17.9518 70.1381 17.7268 70.3756 17.6143C70.1631 17.4893 69.9506 17.3393 69.7256 17.2643C69.4506 17.1768 69.1506 17.1893 68.8756 17.0893C68.4756 16.9393 68.3881 16.4893 68.6756 16.1768C69.1006 15.7143 70.2256 15.8518 70.6881 16.5393Z" fill="black"/>
<path d="M46.2254 16.4767C45.7129 16.3892 45.3004 16.2767 44.8879 16.2517C44.7504 16.2392 44.6004 16.4267 44.4504 16.5267C44.5754 16.6267 44.6879 16.7767 44.8379 16.8267C45.0504 16.9017 45.2879 16.9017 45.5129 16.9267C45.8879 16.9892 46.2879 17.0517 46.3129 17.5392C46.3254 18.0517 45.9504 18.2017 45.5379 18.2517C44.9504 18.3267 44.4129 18.2767 44.0879 17.6142C44.2004 17.6517 44.3129 17.6767 44.4254 17.7142C44.6379 17.7892 44.8629 17.9517 45.0504 17.9267C45.3629 17.8892 45.6629 17.7142 45.9629 17.6017C45.6879 17.4767 45.4254 17.3142 45.1379 17.2392C44.7004 17.1267 44.1129 17.2392 44.0879 16.5392C44.0754 16.0892 44.5254 15.8642 45.2504 15.9017C45.6379 15.9392 46.0129 16.0017 46.2254 16.4767Z" fill="black"/>
<path d="M57.913 15.9019C58.688 15.9019 59.2505 16.3894 59.2755 17.0769C59.3005 17.7644 58.6755 18.3269 57.913 18.3144C57.138 18.3019 56.613 17.8144 56.613 17.0894C56.6005 16.3894 57.1255 15.9019 57.913 15.9019ZM57.9505 17.9519C58.5255 17.9394 58.8755 17.6269 58.888 17.1144C58.9005 16.5644 58.5255 16.2269 57.938 16.2269C57.363 16.2269 56.938 16.6019 56.9505 17.1019C56.9505 17.6269 57.3505 17.9644 57.9505 17.9519Z" fill="black"/>
<path d="M104.763 2.08926C104.301 2.07676 103.963 1.71426 103.963 1.23926C103.963 0.764258 104.326 0.426758 104.788 0.426758C105.251 0.426758 105.688 0.864258 105.651 1.28926C105.626 1.70176 105.176 2.10176 104.763 2.08926Z" fill="black"/>
<path d="M63.1504 18.2894C62.3254 18.1019 62.2504 16.8894 61.2629 17.3394C61.2379 17.6019 61.2004 17.9019 61.1629 18.2144C61.0754 18.2144 61.0004 18.2144 60.9129 18.2144C60.9004 17.8644 60.8754 17.5019 60.8879 17.1519C60.9129 15.7894 60.6879 15.9394 62.0754 15.9769C62.4129 15.9894 62.8879 16.1769 63.0254 16.4394C63.1379 16.6269 62.8129 17.0644 62.6504 17.5019C62.7129 17.6144 62.8879 17.8769 63.1504 18.2894ZM61.8629 16.9394C62.0129 16.9269 62.1754 16.9769 62.3004 16.9269C62.4629 16.8519 62.6004 16.7144 62.7504 16.6019C62.6129 16.4894 62.5004 16.3269 62.3504 16.3019C62.0879 16.2394 61.8129 16.2269 61.5504 16.2769C61.4254 16.3019 61.2504 16.5019 61.2504 16.6144C61.2504 16.7269 61.4379 16.8644 61.5629 16.9394C61.6254 16.9769 61.7629 16.9394 61.8629 16.9394Z" fill="black"/>
<path d="M79.7006 16.8643C79.7631 16.5393 79.8256 16.2518 79.8881 15.9768C79.9381 15.9893 80.0006 15.9893 80.0506 16.0018C80.0506 16.7393 80.0506 17.4643 80.0506 18.2018C79.9881 18.2018 79.9256 18.2143 79.8506 18.2143C79.8131 17.9268 79.7631 17.6268 79.7131 17.2893C79.2381 17.2893 78.7506 17.2893 78.2256 17.2893C78.1631 17.5893 78.1006 17.9143 78.0381 18.2268C77.9756 18.2143 77.9131 18.2143 77.8506 18.2018C77.8506 17.4768 77.8506 16.7518 77.8506 16.0143C77.9131 16.0018 77.9631 15.9893 78.0256 15.9768C78.1006 16.2643 78.1756 16.5393 78.2506 16.8768C78.7256 16.8643 79.2131 16.8643 79.7006 16.8643Z" fill="black"/>
<path d="M96.2005 18.2142C95.5755 18.2142 94.963 18.2267 94.338 18.2017C94.2755 18.2017 94.163 17.9892 94.163 17.8642C94.138 17.3642 94.138 16.8642 94.163 16.3642C94.1755 16.2267 94.3005 15.9892 94.3755 15.9767C94.9755 15.9392 95.5755 15.9642 96.1755 15.9642C96.1755 16.0392 96.1755 16.1142 96.1755 16.1892C95.663 16.1892 95.163 16.1892 94.588 16.1892C94.5755 16.4767 94.563 16.6642 94.5505 16.8767C95.0505 16.9017 95.4755 16.9267 95.913 16.9517C95.913 17.0267 95.913 17.0892 95.913 17.1642C95.488 17.2017 95.0505 17.2267 94.588 17.2642C94.588 17.4767 94.588 17.6642 94.588 17.9392C95.138 17.9392 95.663 17.9392 96.188 17.9392C96.2005 18.0392 96.2005 18.1267 96.2005 18.2142Z" fill="black"/>
<path d="M53.3506 17.2768C53.3006 17.6518 53.2506 17.9268 53.2131 18.2143C53.1506 18.2143 53.0881 18.2018 53.0256 18.2018C53.0256 17.4768 53.0256 16.7393 53.0256 15.9393C53.4881 15.9393 53.9506 15.9143 54.4006 15.9518C54.8131 15.9893 55.2006 16.1393 55.1631 16.6643C55.1256 17.1393 54.7881 17.2643 54.3756 17.2768C54.0381 17.2893 53.7006 17.2768 53.3506 17.2768ZM53.3006 16.9518C53.7381 16.9518 54.0881 16.9768 54.4381 16.9393C54.5631 16.9268 54.7506 16.7643 54.7506 16.6518C54.7631 16.5518 54.5881 16.3518 54.4756 16.3268C54.1131 16.2643 53.7506 16.2643 53.3381 16.2393C53.3256 16.4893 53.3131 16.6768 53.3006 16.9518Z" fill="black"/>
<path d="M25.8879 18.2767C25.0879 17.5017 24.2879 17.3267 23.4879 18.3642C23.4504 18.2892 23.4254 18.2142 23.3879 18.1517C23.7379 17.4642 24.0754 16.7767 24.4629 16.1017C24.5004 16.0267 24.8754 16.0142 24.9129 16.0892C25.3004 16.7642 25.6379 17.4517 25.9879 18.1392C25.9629 18.1767 25.9254 18.2267 25.8879 18.2767ZM25.1629 17.2892C25.0004 16.9517 24.8754 16.6892 24.6879 16.3017C24.5129 16.6892 24.3754 16.9642 24.2254 17.2892C24.5754 17.2892 24.8254 17.2892 25.1629 17.2892Z" fill="black"/>
<path d="M84.3131 18.1269C82.9256 17.5144 82.9256 17.5144 81.7131 18.1394C82.0756 17.4519 82.4256 16.7519 82.8131 16.0769C82.8506 16.0269 83.2131 16.0394 83.2506 16.1269C83.6256 16.7769 83.9631 17.4519 84.3131 18.1269ZM83.0256 16.3144C82.8381 16.7019 82.7131 16.9644 82.5506 17.2894C82.8881 17.2894 83.1506 17.2894 83.4881 17.2894C83.3381 16.9644 83.2131 16.7019 83.0256 16.3144Z" fill="black"/>
<path d="M36.1631 18.1269C36.5131 17.4519 36.8506 16.7769 37.2256 16.1269C37.2631 16.0519 37.6881 16.0769 37.7381 16.1644C38.1006 16.8019 38.4256 17.4769 38.7256 18.2394C37.8756 17.4519 37.0756 17.4019 36.2881 18.2769C36.2506 18.2269 36.2006 18.1769 36.1631 18.1269ZM36.9381 17.3519C37.3506 17.3269 37.6256 17.3019 37.9631 17.2769C37.7756 16.9144 37.6506 16.6644 37.4631 16.3144C37.2881 16.6769 37.1506 16.9394 36.9381 17.3519Z" fill="black"/>
<path d="M76.138 17.4017C75.8755 18.1642 75.4005 18.3892 74.663 18.2642C74.0005 18.1517 73.638 17.7142 73.6505 17.0642C73.663 16.4517 74.063 16.0267 74.6755 15.9392C75.413 15.8392 75.8755 16.0642 76.063 16.7142C75.4005 16.3017 74.7255 15.8392 74.1755 16.6267C74.013 16.8517 74.063 17.4767 74.263 17.6892C74.838 18.2892 75.4505 17.9017 76.138 17.4017Z" fill="black"/>
<path d="M32.6506 16.0017C32.6756 16.3142 32.7006 16.6267 32.7381 17.0017C33.3131 16.6017 33.8506 16.2392 34.3881 15.8767C34.4381 15.9392 34.4756 16.0017 34.5256 16.0642C34.2506 16.3142 33.9631 16.5517 33.6381 16.8392C34.0131 17.2767 34.3631 17.7017 34.8256 18.2392C33.9756 18.1392 33.8381 17.3767 33.1631 17.0517C32.9506 17.4142 32.7381 17.7892 32.4631 18.2642C32.4631 17.4517 32.4631 16.7267 32.4631 16.0017C32.5256 16.0142 32.5881 16.0142 32.6506 16.0017Z" fill="black"/>
<path d="M29.6005 18.2268C28.988 18.2268 28.388 18.2393 27.7755 18.2143C27.7005 18.2143 27.5505 18.0643 27.5505 17.9768C27.5505 17.3518 27.563 16.7393 27.6005 16.1143C27.6005 16.0643 27.7005 16.0143 27.888 15.8643C27.888 16.6143 27.888 17.2393 27.888 17.9643C28.5255 17.9643 29.063 17.9643 29.6005 17.9643C29.6005 18.0393 29.6005 18.1268 29.6005 18.2268Z" fill="black"/>
<path d="M65.6754 16.2894C65.2129 16.2519 64.9004 16.2269 64.5754 16.2019C64.5754 16.1394 64.5754 16.0894 64.5879 16.0269C65.3754 16.0269 66.1754 16.0269 66.9629 16.0269C66.9754 16.0644 66.9754 16.1019 66.9879 16.1394C66.9129 16.1769 66.8254 16.2519 66.7504 16.2394C66.0379 16.1269 65.8504 16.4644 65.9254 17.1144C65.9754 17.4644 65.9379 17.8144 65.9379 18.1644C65.8504 18.1644 65.7629 18.1644 65.6629 18.1644C65.6754 17.5644 65.6754 16.9644 65.6754 16.2894Z" fill="black"/>
<path d="M98.213 17.9644C98.8005 17.9644 99.3255 17.9644 99.8505 17.9644C99.8505 18.0394 99.8505 18.1269 99.8505 18.2019C99.2255 18.2019 98.613 18.2019 97.988 18.1894C97.938 18.1894 97.8505 18.0769 97.8505 18.0144C97.838 17.3519 97.8505 16.6894 97.8505 16.0269C97.938 16.0269 98.0255 16.0144 98.113 16.0144C98.1505 16.6269 98.1755 17.2394 98.213 17.9644Z" fill="black"/>
</svg>
