<svg width="92" height="61" viewBox="0 0 92 61" fill="none" xmlns="http://www.w3.org/2000/svg">
<path d="M69.4457 0C69.4762 2.1321 69.5371 4.2642 69.5371 6.3963C69.5371 6.73135 69.202 7.31006 68.8974 7.37098C62.2879 9.28987 55.648 11.1478 48.7948 13.0667C48.7948 10.7823 48.7339 8.65024 48.8557 6.5486C48.8861 6.18309 49.6172 5.69576 50.1045 5.57392C55.8916 3.8987 61.7701 2.25394 67.6182 0.609172C68.136 0.456879 68.6233 0.21321 69.1411 0C69.2325 0 69.3543 0 69.4457 0Z" fill="black"/>
<path d="M15.8386 60.0032C15.7472 57.3838 15.6254 54.7644 15.6254 52.1754C15.6254 51.9317 16.2345 51.4748 16.6 51.4748C20.5292 51.4139 24.4888 51.4444 28.418 51.4444C28.9053 52.815 28.5094 53.2719 27.1692 53.2414C24.2451 53.1805 21.2907 53.211 18.2448 53.211C18.2448 53.7592 18.2448 54.2466 18.2448 54.8253C21.0165 54.8253 23.6969 54.7948 26.3468 54.8253C27.0169 54.8253 27.9916 54.4293 27.9611 55.7695C27.9306 56.9574 27.0473 56.5919 26.4077 56.6223C23.7274 56.6528 21.047 56.6223 18.2753 56.6223C18.2448 57.1706 18.2143 57.597 18.2143 58.0539C18.5189 58.1148 18.7017 58.2062 18.8844 58.2062C21.5648 58.2062 24.2451 58.2976 26.9255 58.1757C28.3875 58.1148 28.8444 58.6326 28.6312 59.9728C24.367 60.0032 20.1028 60.0032 15.8386 60.0032Z" fill="black"/>
<path d="M77.9741 60.0037C77.9741 57.232 77.9741 54.4298 77.9741 51.4144C79.162 51.4144 80.3803 51.4144 81.5682 51.4144C84.2486 51.4144 86.9594 51.4448 89.6398 51.3839C90.7667 51.3535 91.1931 51.8408 91.1627 52.9068C91.0409 56.44 91.8632 56.6532 87.7513 56.501C87.5381 56.501 87.2944 56.5923 86.6244 56.7142C88.4519 57.8411 89.9444 58.7549 91.4064 59.6686C90.0966 59.76 88.7565 59.8819 87.4467 59.9732C85.2537 58.3894 83.0302 56.836 80.4413 54.978C80.4413 57.0188 80.4413 58.4808 80.4413 59.9732C79.5884 60.0037 78.7965 60.0037 77.9741 60.0037ZM84.5227 53.2419C83.4567 53.2419 82.3906 53.2114 81.355 53.2723C81.0504 53.3028 80.8068 53.6683 80.5326 53.8511C80.8068 54.1252 81.0504 54.6125 81.3246 54.643C83.4262 54.7039 85.5583 54.7039 87.66 54.643C87.9341 54.643 88.2082 54.1556 88.4823 53.8815C88.2082 53.6683 87.9645 53.2723 87.6904 53.2723C86.6548 53.181 85.5888 53.2419 84.5227 53.2419Z" fill="black"/>
<path d="M46.9063 60.0036C46.8149 57.4451 46.6931 54.8561 46.6931 52.2975C46.6931 51.993 47.4241 51.4447 47.8505 51.4447C51.536 51.3838 55.252 51.4142 58.9375 51.3838C59.8817 51.3838 60.2167 51.9016 60.2167 52.724C60.1863 55.1607 60.0949 57.5669 60.0035 60.0036C55.6479 60.0036 51.2619 60.0036 46.9063 60.0036ZM57.4755 53.3331C54.7037 53.3331 52.0538 53.3331 49.3126 53.3331C49.3126 54.9474 49.3126 56.5008 49.3126 58.1151C52.0538 58.1151 54.7342 58.1151 57.4755 58.1151C57.4755 56.5313 57.4755 55.0084 57.4755 53.3331Z" fill="black"/>
<path d="M62.7448 60.0033C62.5925 57.2011 62.4707 54.3989 62.3184 51.5054C63.354 51.5054 64.1154 51.5054 65.0292 51.5054C65.0292 53.6984 65.0292 55.8305 65.0292 58.1149C67.7095 58.1149 70.2376 58.1149 72.9179 58.1149C72.9179 55.9828 72.9179 53.8202 72.9179 51.5663C73.8317 51.5663 74.5627 51.5663 75.7201 51.5663C75.5678 54.3685 75.3851 57.2011 75.2328 60.0338C71.06 60.0033 66.9176 60.0033 62.7448 60.0033Z" fill="black"/>
<path d="M0 56.6529C0.365503 56.6529 0.700548 56.6834 1.06605 56.6834C2.4976 56.6834 2.4976 56.6834 2.86311 58.1454C5.36071 58.1454 7.88878 58.1454 10.5996 58.1454C10.5996 55.9524 10.5996 53.7898 10.5996 51.5359C11.5133 51.5359 12.2444 51.5359 13.4322 51.5359C13.219 54.3685 13.0058 57.2012 12.7926 60.0338C8.52841 60.0338 4.2642 60.0338 0 60.0338C0 58.8764 0 57.7799 0 56.6529Z" fill="black"/>
<path d="M36.2458 60.0034C36.2458 57.8408 36.2458 55.6478 36.2458 53.2111C34.9361 53.2111 33.6568 53.1502 32.3471 53.2416C31.1592 53.3025 30.5805 52.9674 30.9764 51.5359C35.3016 51.5359 39.6571 51.5359 44.0736 51.5359C44.5914 52.7542 44.2259 53.3025 42.8553 53.2111C41.6065 53.1502 40.3577 53.2111 38.9566 53.2111C38.9566 55.5869 38.9566 57.7799 38.9566 60.0034C38.0733 60.0034 37.1595 60.0034 36.2458 60.0034Z" fill="black"/>
<path d="M21.9303 42.1854C21.9303 39.6573 21.8694 37.4948 21.9912 35.3017C22.0216 34.9058 22.7222 34.3271 23.24 34.1748C29.2099 32.53 35.1798 30.9462 41.1801 29.3928C42.6117 29.0273 43.495 28.2963 43.5863 26.7124C43.6472 25.4636 43.3122 25.0372 42.0025 25.4027C36.9768 26.8647 31.9511 28.2658 26.9255 29.6974C26.4381 29.8192 25.9508 29.941 25.2503 30.1238C25.2503 27.8394 25.2198 25.6768 25.2807 23.5447C25.2807 23.3011 25.6462 22.9356 25.9203 22.8746C32.4994 21.0167 39.1089 19.2196 45.688 17.3921C45.7184 17.3921 45.7794 17.4225 46.023 17.4835C46.023 19.7374 46.023 22.0827 46.023 24.3976C46.023 26.3774 46.0839 28.3572 45.9926 30.337C45.8707 33.1087 44.5915 35.4236 41.972 36.2764C35.4234 38.3781 28.7835 40.1751 21.9303 42.1854Z" fill="black"/>
<path d="M69.537 11.0261C69.537 13.0363 69.5675 15.1075 69.5066 17.1787C69.5066 17.5137 68.9583 17.9402 68.5624 18.0924C67.1613 18.5493 65.7602 19.0062 64.3286 19.3108C62.9275 19.5849 62.3488 20.1941 62.4402 21.7475C62.5925 24.3365 62.4402 26.9254 62.5011 29.5144C62.5315 30.4586 62.3183 30.9764 61.2827 31.1896C59.3639 31.6161 57.4754 32.1948 55.4042 32.7735C55.4042 29.088 55.4042 25.6157 55.4042 21.8998C53.1198 22.5089 51.0487 23.0877 48.7947 23.6968C48.7947 21.4124 48.7643 19.2803 48.8252 17.1787C48.8252 16.9046 49.2211 16.4781 49.5257 16.3868C56.0439 14.5288 62.5925 12.7317 69.1411 10.9347C69.202 10.8738 69.2934 10.9347 69.537 11.0261Z" fill="black"/>
<path d="M25.2503 19.5239C25.2503 17.27 25.2198 15.2293 25.2807 13.219C25.2807 12.8839 25.6767 12.3662 25.9813 12.2748C32.4994 10.3863 39.048 8.55883 45.5966 6.73131C45.688 6.70085 45.7794 6.76177 46.0231 6.85315C46.0231 8.89387 46.0535 10.9651 45.9926 13.0362C45.9926 13.3713 45.5662 13.8586 45.2616 13.95C38.6521 15.808 32.073 17.6355 25.2503 19.5239Z" fill="black"/>
</svg>
