<svg width="80" height="36" viewBox="0 0 80 36" fill="none" xmlns="http://www.w3.org/2000/svg">
<path d="M8.59894 0.0585794C8.9212 0.644517 9.24347 1.23045 9.53644 1.84569C9.59503 1.96288 9.59503 2.22655 9.50714 2.31444C8.8919 3.01756 8.24737 3.74999 7.57354 4.39452C7.28058 4.65819 6.89972 4.86327 6.51886 5.00975C5.55206 5.4492 4.64386 5.94725 3.91144 6.73827C3.12042 7.61717 2.82745 8.61327 2.94464 9.78514C2.97394 9.99022 2.97394 10.2246 2.97394 10.4297C2.65167 9.63866 2.65167 8.81835 2.82745 7.99803C3.00323 7.20702 3.35479 6.47459 3.76495 5.71288C3.61847 5.77147 3.44269 5.80077 3.38409 5.91795C2.85675 6.65038 2.59308 7.47069 2.53448 8.37889C2.41729 10.3711 3.2962 11.9531 4.40948 13.4765C5.81573 15.4394 7.19269 17.4023 8.51104 19.3945C9.44854 20.8008 9.97589 22.3828 10.5325 23.9648C11.265 26.0449 11.9095 28.125 12.9642 30.0879C13.4036 30.9082 13.9017 31.6992 14.3411 32.4902C14.429 32.6367 14.5169 32.8125 14.6341 32.9883C14.3704 32.9883 14.136 32.9297 13.931 32.959C13.4915 32.9883 13.1107 33.164 12.847 33.5449C12.6126 33.9258 12.3489 34.2773 11.9095 34.2773C11.8509 34.6289 11.8509 34.9805 11.763 35.3027C11.6751 35.6543 11.47 35.8594 11.0892 35.8008C11.0013 35.8008 10.9134 35.8301 10.7962 35.8594C10.6497 35.8594 10.5032 35.8594 10.3567 35.8594C10.4446 35.5664 10.5325 35.2734 10.6204 34.9805C10.679 34.6582 10.7669 34.3066 10.7669 33.9551C10.7669 33.7207 10.5618 33.5156 10.4446 33.2226C10.5911 33.2519 10.679 33.3105 10.7669 33.3105C11.1478 33.3691 11.5286 33.4277 11.8216 33.1055C12.1732 32.7539 12.4954 32.4316 12.847 32.0801C12.3489 31.8164 11.7337 31.875 11.4407 32.2558C11.1478 32.6953 10.8548 33.1348 10.3275 33.0469C10.2689 33.3984 10.2689 33.75 10.1224 34.0137C9.77081 34.5996 9.68292 35.1855 10.0052 35.8008C9.12628 35.8008 8.24737 35.8008 7.36847 35.8008C7.77862 35.3906 8.013 34.6875 8.8919 34.8926C8.59894 34.3945 8.77472 34.0137 9.03839 33.6621C9.33136 33.1933 9.38995 32.7246 9.09698 32.2265C9.03839 32.1387 9.03839 32.0508 8.97979 31.9043C9.8587 32.2851 10.0345 32.2265 10.679 31.6113C10.8841 31.4062 11.1478 31.2598 11.3821 31.1133C10.9134 30.791 10.386 30.8203 9.888 31.3183C9.59503 31.6113 9.30206 31.8457 8.80401 31.7871C8.9505 32.2851 8.74542 32.6367 8.48175 33.0176C8.21808 33.3984 8.18878 33.8379 8.39386 34.2773C8.48175 34.4238 8.54034 34.5703 8.68683 34.8047C8.48175 34.6875 8.36456 34.5996 8.24737 34.5703C7.89581 34.4238 7.54425 34.3652 7.19269 34.6289C6.89972 34.8633 6.60675 35.0976 6.28448 35.3613C6.37237 35.4199 6.51886 35.5078 6.63604 35.5957C6.75323 35.6836 6.87042 35.7715 6.98761 35.8594C6.89972 35.8594 6.84112 35.8594 6.75323 35.8594C6.138 35.8008 5.49347 35.6836 4.87823 35.6543C3.76495 35.625 2.94464 35.1269 2.30011 34.2187C2.06573 33.8965 2.06573 33.6328 2.27081 33.2812C2.79815 32.4609 3.2962 31.6406 3.79425 30.8203C4.08722 30.3223 4.81964 30 5.37628 30.1758C5.28839 29.7363 5.55206 29.4726 5.84503 29.209C6.19659 28.916 6.28448 28.5351 6.19659 28.0957C6.19659 28.0078 6.19659 27.9492 6.19659 27.7734C6.34308 27.9199 6.43097 28.0371 6.54815 28.0664C6.72394 28.125 6.95831 28.2129 7.10479 28.1543C7.42706 28.0664 7.72003 27.8613 8.04229 27.7148C7.74933 27.3633 7.48565 27.2754 7.0755 27.4512C6.84112 27.539 6.63604 27.6855 6.40167 27.6855C6.16729 27.6855 6.0794 27.7734 6.02081 27.9492C5.99151 28.0371 5.93292 28.125 5.87433 28.1836C5.31769 28.623 5.11261 29.1797 5.22979 29.8535C5.22979 29.8535 5.2005 29.8828 5.1712 29.8828C5.05401 29.7656 4.96612 29.6484 4.81964 29.5605C4.55597 29.414 4.55597 29.2383 4.67315 29.0039C4.96612 28.3008 5.22979 27.5976 5.52276 26.8945C5.58136 26.748 5.63995 26.5723 5.69854 26.3379C6.28448 27.0703 6.75323 26.3086 7.33917 26.3965C6.89972 25.6055 6.28448 26.1035 5.78644 26.1328C5.72784 25.2539 5.87433 25.0781 6.72394 24.9316C6.60675 24.7851 6.48956 24.6387 6.37237 24.5508C5.99151 24.2578 5.90362 24.0527 6.02081 23.584C6.05011 23.4961 6.05011 23.3789 6.05011 23.2617C5.99151 22.9687 5.87433 22.7051 5.84503 22.4121C5.63995 21.123 5.28839 19.8633 4.64386 18.7207C3.35479 16.4941 2.09503 14.1797 1.04034 11.7773C0.249326 10.0195 -0.219424 8.20311 0.102842 6.24022C0.366513 4.5996 1.04034 3.16405 2.3587 2.08006C3.47198 1.14256 4.73175 0.61522 6.138 0.322251C6.63604 0.234361 7.13409 0.14647 7.63214 0.0585794C7.9544 0.0585794 8.27667 0.0585794 8.59894 0.0585794ZM4.05792 31.6406C4.35089 32.2558 4.81964 32.373 5.37628 31.9629C5.63995 31.7578 5.87433 31.6406 6.22589 31.8457C6.1087 31.3769 6.34308 31.084 6.60675 30.8203C6.95831 30.4687 7.0462 30.0586 6.98761 29.6191C6.98761 29.5312 6.95831 29.414 6.95831 29.2676C7.0462 29.3262 7.10479 29.3555 7.16339 29.414C7.60284 29.7363 7.74933 29.707 8.21808 29.414C8.45245 29.2676 8.71612 29.1211 8.9505 29.0039C8.68683 28.6816 8.33526 28.6523 7.86651 28.8867C7.57354 29.0332 7.25128 29.1504 6.92901 29.2969C6.84112 29.3848 6.78253 29.5898 6.66534 29.707C6.19659 30.2637 5.69854 30.8203 6.1087 31.6406C5.99151 31.6113 5.96222 31.582 5.93292 31.5527C5.40558 31.084 5.25909 31.084 4.67315 31.4355C4.46808 31.5234 4.263 31.582 4.05792 31.6406ZM4.99542 33.5156C5.37628 34.0723 5.84503 34.1308 6.34308 33.6328C6.37237 33.6035 6.43097 33.5449 6.48956 33.5449C6.75323 33.457 7.0169 33.3691 7.25128 33.3105C7.19269 33.2812 7.10479 33.2226 7.0169 33.164C6.48956 32.7539 6.138 32.7832 5.61065 33.1933C5.43487 33.3105 5.22979 33.3984 4.99542 33.5156ZM7.77862 30.7617C7.54425 31.1133 7.33917 31.4355 7.13409 31.7578C6.89972 32.1387 6.92901 32.7246 7.19269 33.0469C7.39776 32.7539 7.60284 32.4316 7.77862 32.1094C8.013 31.6699 7.9837 31.2305 7.77862 30.7617ZM9.91729 30.0879C9.59503 29.8242 9.27276 29.7949 8.83331 30.0586C8.51104 30.2637 8.15948 30.4394 7.86651 30.6152C8.33526 31.0254 8.68683 31.0254 9.12628 30.6738C9.38995 30.4687 9.65362 30.2637 9.91729 30.0879ZM6.87042 3.22264C6.84112 3.19335 6.84112 3.16405 6.81183 3.13475C6.31378 3.42772 5.81573 3.72069 5.31769 4.01366C5.34698 4.07225 5.37628 4.10155 5.40558 4.16014C5.90362 3.83788 6.40167 3.51561 6.87042 3.22264Z" fill="black" fill-opacity="0.5"/>
<path d="M9.38993 0.0585938C10.2688 0.263672 11.177 0.410156 11.9974 0.703125C14.8977 1.72852 16.6849 3.7207 17.1243 6.79688C17.3294 8.23242 17.0364 9.63867 16.5091 10.9863C15.5716 13.4473 14.4583 15.791 13.2571 18.1055C12.8177 18.9844 12.3782 19.834 11.9095 20.7129C11.3528 21.7676 11.177 22.8809 11.1185 24.0234C11.1185 24.1699 11.0892 24.3164 11.0892 24.4629C11.0599 24.4629 11.0306 24.4629 11.0013 24.4629C10.8548 24.1113 10.7376 23.7598 10.5911 23.3789C10.0345 21.8262 9.41923 20.3027 8.59892 18.8672C8.51103 18.7207 8.51103 18.4863 8.56962 18.3398C9.27275 16.7871 9.97587 15.2637 10.7376 13.7402C11.2649 12.6855 11.763 11.6016 11.9974 10.4297C12.2317 9.28711 12.2317 8.17383 11.5286 7.17773C11.0306 6.44531 10.3567 5.83008 9.53642 5.41992C9.00908 5.15625 8.45243 4.95117 7.92509 4.7168C7.8079 4.6582 7.72001 4.62891 7.54423 4.54102C7.89579 4.13086 8.21806 3.7793 8.54033 3.42773C8.83329 3.10547 9.15556 2.8125 9.47783 2.49023C9.7415 2.22656 9.77079 1.96289 9.56571 1.61133C9.24345 1.08398 9.00908 0.527344 8.71611 0C9.00908 0.0585938 9.18486 0.0585938 9.38993 0.0585938ZM11.2063 13.8867C11.1477 13.9453 11.0892 14.0332 11.0599 14.0918C10.6204 15 10.1517 15.9082 9.7415 16.8457C9.56572 17.2559 9.38993 17.7246 9.41923 18.1641C9.50712 19.1016 9.85868 19.9219 10.5032 20.625C10.8841 21.0352 11.2649 21.0059 11.5286 20.5371C12.056 19.5996 12.5247 18.6621 13.0227 17.6953C13.1985 17.3438 13.052 17.0801 12.7005 16.9922C12.4075 16.9336 12.4075 16.7578 12.4368 16.5527C12.4954 15.9375 12.2317 15.498 11.6751 15.2344C11.5872 15.2051 11.47 15.0293 11.4993 14.9414C11.6458 14.502 11.5579 14.1797 11.2063 13.8867ZM12.3196 15.1172C12.2903 15.4102 12.847 15.9961 13.1399 16.0254C13.4915 16.0547 14.1653 15.498 14.1653 15.1758C14.1946 14.9414 13.5794 14.209 13.345 14.209C12.9056 14.1797 12.3489 14.6777 12.3196 15.1172ZM13.6087 8.81836C14.0774 8.84766 14.6634 8.34961 14.6634 7.93945C14.6634 7.67578 14.1067 7.00195 13.8724 7.00195C13.4036 7.00195 12.847 7.5 12.8177 7.93945C12.8177 8.26172 13.3157 8.78906 13.6087 8.81836ZM12.9935 12.3926C13.0227 12.7148 13.4915 13.2715 13.7845 13.2715C14.2532 13.2715 14.8392 12.8027 14.8685 12.4219C14.8685 12.1582 14.2825 11.3965 14.0774 11.4551C13.7845 11.5137 13.4622 11.6602 13.1985 11.8359C13.0813 11.9531 13.0813 12.2168 12.9935 12.3926ZM15.4544 9.75586C15.4837 9.28711 15.1321 8.73047 14.8099 8.70117C14.3704 8.70117 13.7259 9.19922 13.7259 9.58008C13.6966 9.90234 14.2532 10.5176 14.5755 10.5469C15.0149 10.5762 15.4544 10.1953 15.4544 9.75586ZM13.2278 13.418C13.2278 13.1543 12.6712 12.4805 12.4075 12.4805C11.9681 12.4805 11.3821 13.0664 11.3821 13.5059C11.3821 13.7695 11.8802 14.2969 12.1438 14.2969C12.6419 14.3262 13.2278 13.8574 13.2278 13.418ZM13.931 10.5762C13.8138 10.4297 13.6673 10.1953 13.4915 9.99024C13.3743 9.87305 13.1692 9.72656 13.052 9.75586C12.847 9.84375 12.5833 9.99023 12.4954 10.1953C12.3782 10.4297 12.3489 10.752 12.3196 11.0449C12.3196 11.1035 12.3196 11.2207 12.3782 11.25C12.5833 11.3965 12.7298 11.6895 13.0813 11.5723C13.7259 11.3086 13.931 11.1035 13.931 10.5762ZM12.8763 5.27344C12.6419 5.39062 12.3489 5.47852 12.1438 5.6543C12.056 5.71289 12.1731 6.00586 12.2024 6.18164C12.261 6.38672 12.2903 6.62109 12.3782 6.82617C12.4368 6.94336 12.554 7.06055 12.6712 7.08984C13.1399 7.17773 13.7845 6.65039 13.6966 6.21094C13.6087 5.88867 13.3157 5.625 13.0813 5.33203C13.052 5.30273 12.9935 5.30273 12.8763 5.27344ZM11.2649 3.92578C11.47 4.39453 11.6458 4.80469 11.8509 5.21484C11.8802 5.27344 11.9974 5.33203 12.0559 5.33203C12.3196 5.18555 12.6419 5.15625 12.7884 4.77539C12.9349 4.27734 12.5247 4.10156 12.3782 3.7793C12.261 3.54492 12.0852 3.51562 11.8509 3.60352C11.6458 3.69141 11.47 3.80859 11.2649 3.92578ZM10.1224 2.19727C10.0931 2.22656 10.0931 2.22656 10.0638 2.25586C10.2981 2.54883 10.5618 2.87109 10.7376 3.19336C10.9427 3.51562 11.1185 3.7207 11.4993 3.45703C11.5872 3.39844 11.7044 3.33984 11.7337 3.25195C11.7337 3.19336 11.6458 3.04688 11.5579 3.01758C11.0892 2.72461 10.5911 2.46094 10.1224 2.19727ZM15.3958 7.76367C15.22 7.23633 15.0442 6.73828 14.8392 6.18164C14.5462 6.47461 14.3704 6.73828 14.4583 7.03125C14.5755 7.41211 14.9856 7.73438 15.3958 7.76367ZM13.6966 4.6582C13.3743 5.15625 13.5794 5.50781 13.8724 5.77148C14.0188 5.88867 14.1653 6.00586 14.3411 6.06445C14.3704 6.09375 14.5755 5.85938 14.5755 5.83008C14.3118 5.44922 14.0188 5.06836 13.6966 4.6582ZM14.3411 14.7656C14.4876 14.2676 14.6048 13.8574 14.722 13.4473C14.722 13.418 14.5755 13.3301 14.5462 13.3301C14.3704 13.4473 14.136 13.5645 14.0188 13.7695C13.7845 14.1211 14.0188 14.3848 14.3411 14.7656ZM15.3665 10.5762C15.0149 10.7227 14.7513 10.8105 14.6634 11.1621C14.5755 11.543 14.8392 11.7188 14.9856 11.9531C15.0149 11.9531 15.0735 11.9531 15.1028 11.9531C15.1907 11.4844 15.2786 11.0449 15.3665 10.5762ZM12.5833 8.32031C12.5833 8.55469 12.6126 8.70117 12.6126 8.87695C12.6126 9.05273 12.554 9.22852 12.554 9.375C12.554 9.46289 12.6126 9.55078 12.6712 9.60938C12.7591 9.55078 12.847 9.52148 12.8763 9.46289C13.1106 9.11133 13.052 8.81836 12.5833 8.32031ZM13.7259 16.1719C13.2571 16.3184 13.1692 16.5527 13.3157 17.1094C13.4622 16.7871 13.5794 16.5234 13.7259 16.1719ZM11.9095 12.3047C11.9681 12.334 12.0267 12.334 12.0852 12.3633C12.1438 12.0996 12.2317 11.8066 12.2903 11.543C12.261 11.543 12.2024 11.5137 12.1731 11.5137C12.0852 11.7773 11.9974 12.041 11.9095 12.3047Z" fill="black" fill-opacity="0.5"/>
<path d="M79.8489 15.7324C79.4095 16.7871 78.8821 17.1094 77.7103 17.1387C77.1536 17.1387 77.1536 17.1387 77.1536 17.6953C77.1536 18.0176 77.1536 18.3398 77.1536 18.6914C77.1536 18.9258 77.0657 19.043 76.8314 19.043C76.5384 19.043 76.2747 19.043 75.9817 19.043C75.7767 19.043 75.6595 18.9551 75.6595 18.7207C75.6595 17.1387 75.6595 15.5273 75.6595 13.9453C75.6595 13.7109 75.7767 13.6231 76.011 13.6231C76.6849 13.6231 77.388 13.5938 78.0618 13.6231C78.9114 13.6816 79.5853 14.0625 79.8489 14.9414C79.8489 15.2051 79.8489 15.4688 79.8489 15.7324ZM77.6517 14.6191C77.6224 14.6484 77.6224 14.6777 77.5931 14.707C77.5052 14.707 77.3587 14.707 77.3587 14.7363C77.2708 14.9121 77.1829 15.0879 77.1829 15.2637C77.1829 15.5273 77.0071 15.9082 77.3587 15.9961C77.5931 16.0547 77.9739 15.9961 78.1497 15.8203C78.2962 15.6738 78.3255 15.293 78.2376 15.0586C78.1497 14.8535 77.8567 14.7656 77.6517 14.6191Z" fill="black" fill-opacity="0.5"/>
<path d="M28.7259 27.7734C28.931 28.5937 29.1653 29.3848 29.3997 30.2637C28.6673 30.293 28.1693 30 27.7591 29.5019C27.7005 29.4433 27.6712 29.3555 27.6126 29.2969C27.0853 28.4766 27.0853 28.4766 26.3235 28.0078C25.0638 27.2461 24.4193 25.8398 24.7122 24.4043C25.0052 22.9101 26.1478 21.7969 27.6126 21.5625C29.0189 21.3281 30.3958 21.9726 31.1282 23.1738C31.9193 24.4629 31.89 25.8984 31.0111 27.0996C30.6009 27.6562 30.0736 28.0078 29.4583 28.2715C29.2825 28.3594 29.1653 28.3008 29.0775 28.125C29.0189 27.9785 28.931 27.8613 28.8431 27.7148C28.8138 27.7148 28.7552 27.7441 28.7259 27.7734ZM28.4915 27.3633C28.5794 27.2754 28.638 27.1289 28.7552 27.041C29.0189 26.8359 29.3411 26.6894 29.6048 26.4844C30.3958 25.8398 30.5716 23.9941 29.1946 23.1738C28.1985 22.5586 26.7044 22.9394 26.2357 24.1113C25.8548 25.0781 26.1478 26.25 26.9681 26.6601C27.4661 26.9238 27.9935 27.1582 28.4915 27.3633Z" fill="black" fill-opacity="0.5"/>
<path d="M59.429 25.0195C59.429 23.1445 61.1282 21.4746 63.0032 21.5039C64.8782 21.5332 66.5481 23.0566 66.5189 25.0488C66.4896 27.0117 64.8489 28.4766 63.0032 28.5059C61.0696 28.5937 59.3997 26.8945 59.429 25.0195ZM62.9446 22.9102C61.7728 22.9102 60.8939 23.8184 60.8939 25.0488C60.8939 26.1914 61.8021 27.1289 62.9446 27.1289C64.0872 27.1582 65.054 26.1914 65.054 25.0488C65.054 23.8477 64.1458 22.9102 62.9446 22.9102Z" fill="black" fill-opacity="0.5"/>
<path d="M51.929 28.2422C51.4017 28.2422 50.8743 28.3301 50.3763 28.2129C50.0247 28.1543 49.6731 27.9492 49.4974 27.5391C49.3216 27.1875 49.1165 26.836 48.9114 26.4844C48.8528 26.3965 48.8528 26.2793 48.8235 26.1621C48.7356 25.5469 48.8235 25.459 49.4388 25.459C50.1712 25.459 50.6106 25.0488 50.6399 24.3457C50.6692 23.7012 50.2005 23.1738 49.5267 23.1152C49.263 23.086 49.0286 23.1152 48.7649 23.1152C48.472 23.086 48.3841 23.2324 48.3841 23.5254C48.3841 24.6094 48.3841 25.6934 48.3841 26.7774C48.3841 27.4512 48.0325 27.9492 47.4173 28.1836C47.0657 28.3301 46.9192 28.2422 46.9192 27.8613C46.9192 25.957 46.9192 24.082 46.9192 22.1777C46.9192 21.9141 47.0071 21.7676 47.3001 21.7676C48.1204 21.7676 48.9407 21.7676 49.761 21.7676C50.7571 21.7969 51.6946 22.5879 52.0169 23.6719C52.3099 24.668 51.8997 25.7227 51.0794 26.3086C50.5521 26.6602 50.552 26.7188 50.9915 27.1582C51.1673 27.334 51.3138 27.4805 51.4895 27.6563C51.6653 27.8027 51.8411 27.9492 52.0169 28.0957C51.9583 28.1836 51.929 28.2129 51.929 28.2422Z" fill="black" fill-opacity="0.5"/>
<path d="M74.6927 21.7969C75.1321 21.7969 75.6009 21.7969 76.0403 21.7969C76.3333 21.7969 76.3919 21.914 76.304 22.1777C76.0989 22.7344 75.6009 23.1152 74.9856 23.1152C74.6048 23.1152 74.2239 23.1152 73.8431 23.1152C73.4036 23.1152 73.5208 23.4668 73.4915 23.7012C73.4622 23.9941 73.6966 23.8769 73.8724 23.8476C74.9271 23.7012 75.7474 24.1406 76.1868 25.1367C76.597 25.9863 76.3333 27.1582 75.6302 27.8027C74.4583 28.8574 72.6712 28.5937 71.7923 27.3047C71.5286 26.8945 71.47 26.4551 71.5286 26.0156C71.5286 25.9277 71.6458 25.7812 71.7337 25.7519C72.2024 25.6055 72.6419 25.8398 72.847 26.3379C73.1106 27.041 73.8431 27.3047 74.5169 26.8945C74.9271 26.6601 75.0735 26.1914 74.9563 25.664C74.8685 25.3125 74.4876 24.9902 74.0774 24.9902C73.5208 24.9902 72.9642 25.0488 72.4075 25.0488C71.9095 25.0488 71.9095 25.0488 71.9681 24.5508C71.9974 24.082 72.0267 23.6426 72.056 23.1738C72.0853 22.2949 72.6126 21.7383 73.5208 21.7383C73.931 21.7969 74.3118 21.7969 74.6927 21.7969Z" fill="black" fill-opacity="0.5"/>
<path d="M61.2161 16.2011C61.4212 16.4062 61.7142 16.6113 61.8607 16.875C62.3001 17.7246 61.7728 18.75 60.7474 18.8965C59.7806 19.0429 58.8138 18.9843 57.8177 19.0136C57.554 19.0136 57.554 18.8086 57.554 18.6035C57.554 17.5195 57.554 16.4355 57.554 15.3515C57.554 14.8828 57.554 14.414 57.554 13.9746C57.554 13.7109 57.6712 13.5937 57.9349 13.5937C58.7845 13.5937 59.6048 13.5644 60.4544 13.5937C61.4505 13.623 62.1243 14.5019 61.7728 15.4101C61.6849 15.7324 61.4212 15.9668 61.2161 16.2011ZM59.6341 16.7285C59.3411 16.7285 59.1068 16.7578 59.1068 17.1386C59.1068 17.9297 59.1654 18.0176 59.9564 17.8418C59.9857 17.8418 60.0443 17.8418 60.0736 17.8125C60.22 17.6367 60.4251 17.4902 60.4837 17.3144C60.5716 17.0508 60.3665 16.875 60.1029 16.8164C59.9564 16.7871 59.7806 16.7578 59.6341 16.7285ZM59.6634 14.707C59.1654 14.707 59.1361 14.7363 59.1361 15.1465C59.1361 15.4394 59.1653 15.6738 59.5462 15.6445C60.0443 15.6152 60.3665 15.4687 60.3665 15.1465C60.3665 14.8535 60.1321 14.707 59.6634 14.707Z" fill="black" fill-opacity="0.5"/>
<path d="M44.1946 26.0156C43.9017 25.2539 43.638 24.5508 43.3743 23.877C43.345 23.877 43.3157 23.877 43.2864 23.877C43.0813 24.4336 42.847 24.9609 42.6419 25.5176C42.3782 26.1621 42.1731 26.8066 41.8802 27.4219C41.5286 28.125 40.9134 28.3887 40.0931 28.2129C40.181 27.9492 40.2981 27.6855 40.386 27.4512C41.0892 25.7227 41.8216 23.9941 42.5247 22.2949C42.7298 21.8262 42.9056 21.7383 43.3743 21.9434C43.8724 22.1191 44.1653 22.5 44.3704 22.9687C45.0735 24.6387 45.7767 26.2793 46.5091 27.9492C46.6263 28.2129 46.5677 28.3301 46.2747 28.3301C45.6595 28.3594 45.1028 28.2422 44.5755 27.8613C44.0481 27.4805 43.3743 27.3047 42.7591 27.0703C42.4661 26.9531 42.4075 26.8652 42.5247 26.5723C42.7884 26.0156 43.2864 25.7812 43.8724 25.957C43.931 25.9277 43.9896 25.957 44.1946 26.0156Z" fill="black" fill-opacity="0.5"/>
<path d="M37.6321 28.2422C36.9583 28.2422 36.3431 28.3887 35.7864 27.9199C35.2005 27.4512 34.5267 27.1582 33.7649 27.0117C33.4134 26.9531 33.3841 26.8066 33.5306 26.4844C33.8235 25.9277 34.2337 25.7519 34.8489 25.8984C34.9368 25.9277 34.9954 25.9277 35.1712 25.957C34.8782 25.1953 34.6145 24.5215 34.3216 23.7305C34.0286 24.4922 33.7649 25.166 33.5013 25.8105C33.2962 26.3086 33.1204 26.8066 32.886 27.3047C32.6224 27.8906 32.1536 28.2422 31.4798 28.2422C31.0696 28.2422 31.011 28.1836 31.1868 27.8027C31.6263 26.748 32.0657 25.7226 32.5052 24.6679C32.8567 23.8476 33.2083 22.998 33.5599 22.1777C33.7063 21.7969 33.8821 21.709 34.263 21.8555C34.7317 22.0312 35.1126 22.3242 35.2884 22.793C36.0501 24.5215 36.7825 26.25 37.5442 28.0078C37.5735 28.0371 37.6028 28.0957 37.6321 28.2422Z" fill="black" fill-opacity="0.5"/>
<path d="M51.1087 19.0137C50.6106 19.0137 50.1712 19.043 49.7317 18.9844C49.6145 18.9844 49.4681 18.7793 49.4095 18.6328C49.263 18.252 49.1458 17.8125 48.97 17.4316C48.9114 17.2852 48.7942 17.1094 48.6771 17.0215C48.5306 16.9336 48.3255 16.9043 48.1204 16.9043C48.0911 16.9043 48.0325 17.168 48.0325 17.3145C48.0325 17.7539 48.0325 18.1641 48.0325 18.6035C48.0325 18.8672 47.9153 19.0137 47.6517 19.0137C47.3587 19.0137 47.095 19.0137 46.802 19.0137C46.597 19.0137 46.4798 18.8965 46.4798 18.6914C46.4798 17.1094 46.4798 15.498 46.4798 13.916C46.4798 13.7109 46.5677 13.5938 46.802 13.5938C47.7103 13.5938 48.6185 13.5645 49.4974 13.623C50.0833 13.6523 50.5813 13.9453 50.7571 14.5313C50.9329 15.0879 50.8743 15.6445 50.3763 16.0547C50.1419 16.2598 50.1712 16.4355 50.2591 16.6992C50.5228 17.3438 50.7571 17.959 50.9915 18.6035C51.0501 18.7207 51.0794 18.8086 51.1087 19.0137ZM48.0618 15.293C48.0911 15.5273 47.9446 15.8203 48.3841 15.8203C48.97 15.791 49.3509 15.6152 49.3509 15.2344C49.3509 14.9121 49.0579 14.707 48.5306 14.707C48.0911 14.707 48.0618 14.7363 48.0618 15.293Z" fill="black" fill-opacity="0.5"/>
<path d="M56.8216 26.8066C57.0853 26.8066 57.3782 26.8066 57.6419 26.8066C58.3157 26.8359 58.8724 27.1875 59.0774 27.7734C59.1946 28.1543 59.1067 28.2715 58.7259 28.2715C57.847 28.2715 56.9681 28.2715 56.0892 28.2715C55.679 28.2715 55.3567 28.0957 55.0931 27.832C54.6536 27.3633 54.6243 26.9531 55.0638 26.4844C55.4153 26.1035 55.8255 25.752 56.177 25.4004C56.6165 24.9609 57.056 24.4922 57.4661 23.9941C57.7591 23.6133 57.7298 23.2617 57.4075 23.0859C57.0267 22.8516 56.47 22.9395 56.2649 23.291C56.2356 23.3496 56.2063 23.4082 56.177 23.4961C55.8841 24.1406 55.5618 24.2871 54.888 24.0527C54.8001 24.0234 54.6829 23.877 54.6829 23.7891C54.7415 22.8516 55.1517 22.0605 56.2942 21.6797C57.261 21.3574 58.345 21.709 58.8138 22.4414C59.1653 22.998 59.3118 23.6133 58.9017 24.1992C58.3743 24.9316 57.7884 25.5762 57.2317 26.2793C57.0853 26.4551 56.9388 26.6016 56.7923 26.748C56.7923 26.7188 56.7923 26.748 56.8216 26.8066Z" fill="black" fill-opacity="0.5"/>
<path d="M68.9212 26.8066C69.2142 26.8066 69.5364 26.8066 69.8294 26.8066C70.4739 26.8359 71.0599 27.2754 71.2064 27.8613C71.2942 28.125 71.2356 28.2715 70.9427 28.2715C70.0052 28.2715 69.0384 28.3008 68.1009 28.2715C67.5149 28.2715 66.929 27.7148 66.8704 27.1582C66.8411 27.041 66.929 26.8359 67.0169 26.748C67.3978 26.3379 67.8079 25.9863 68.1595 25.5761C68.6282 25.0781 69.0677 24.5801 69.5364 24.0527C69.888 23.6426 69.888 23.3496 69.5657 23.1152C69.2142 22.8515 68.6282 22.9101 68.3939 23.2617C68.3353 23.3203 68.306 23.4082 68.2767 23.4961C68.013 24.082 67.7493 24.1992 67.1634 24.082C66.8704 24.0234 66.7825 23.9062 66.8411 23.6133C66.9583 22.6465 67.4271 21.9726 68.3939 21.6797C69.3021 21.3867 70.1224 21.5332 70.7962 22.207C71.3235 22.7343 71.47 23.5254 71.0599 24.1699C70.7376 24.7265 70.3274 25.2246 69.888 25.7226C69.595 26.0742 69.2142 26.3672 68.8626 26.6894C68.8626 26.7187 68.8919 26.748 68.9212 26.8066Z" fill="black" fill-opacity="0.5"/>
<path d="M37.5443 19.0137C36.9876 19.0137 36.4896 19.043 35.9915 19.0137C35.9036 19.0137 35.7864 18.8379 35.7571 18.6914C35.6693 18.3984 35.4935 18.2812 35.2005 18.3105C34.8489 18.3398 34.4974 18.3105 34.1458 18.3105C33.9114 18.3105 33.765 18.3984 33.7357 18.6328C33.6771 18.9551 33.472 19.0723 33.179 19.043C32.8861 19.0137 32.5638 19.043 32.2708 19.043C32.0071 19.043 31.9193 18.9551 32.0071 18.6914C32.5931 17.1094 33.179 15.5273 33.7357 13.9453C33.8236 13.7109 33.97 13.5937 34.2337 13.623C34.6146 13.6523 34.9954 13.5937 35.3763 13.6523C35.5228 13.6816 35.7278 13.7988 35.7864 13.916C36.4017 15.5273 36.9876 17.168 37.5736 18.7793C37.515 18.8086 37.515 18.8672 37.5443 19.0137ZM35.2884 17.1973C35.0833 16.5234 34.9075 15.9082 34.7025 15.1758C34.5267 15.8203 34.3509 16.3476 34.2337 16.9043C34.2044 16.9922 34.3216 17.168 34.3802 17.1973C34.6439 17.1973 34.9368 17.1973 35.2884 17.1973Z" fill="black" fill-opacity="0.5"/>
<path d="M51.2259 19.0136C51.4017 18.5156 51.5481 18.1054 51.6946 17.6953C52.1341 16.5234 52.6028 15.3222 53.0423 14.1504C53.2474 13.5937 53.2474 13.5937 53.8333 13.5937C54.1263 13.5937 54.4485 13.5937 54.7415 13.5937C55.0052 13.5937 55.1517 13.6816 55.2396 13.9453C55.8548 15.5273 56.4407 17.1093 57.056 18.6914C57.1438 18.9258 57.0853 19.0429 56.8216 19.0429C56.4993 19.0429 56.1771 19.0429 55.8255 19.0429C55.5911 19.0429 55.4739 18.955 55.386 18.7207C55.0345 17.6953 55.181 17.9004 54.1556 17.8711C54.1263 17.8711 54.097 17.8711 54.097 17.8711C53.013 17.9004 53.2181 17.7246 52.8372 18.7207C52.7493 18.9258 52.6321 19.0429 52.3978 19.0429C52.0462 19.0136 51.6653 19.0136 51.2259 19.0136ZM53.5403 16.7578C53.9212 16.7578 54.2142 16.7578 54.5071 16.7578C54.5657 16.7578 54.6536 16.582 54.6243 16.5234C54.4778 16.0254 54.3313 15.498 54.1849 15C54.1556 15 54.1263 15 54.1263 15C53.9505 15.5566 53.7747 16.1133 53.5403 16.7578Z" fill="black" fill-opacity="0.5"/>
<path d="M40.181 18.9551C40.3567 18.4863 40.5032 18.0176 40.679 17.5781C41.1185 16.377 41.5872 15.1758 42.056 13.9746C42.1438 13.7402 42.261 13.5938 42.5247 13.6231C42.9056 13.6231 43.3157 13.5938 43.6966 13.6231C43.8431 13.6231 44.0774 13.7402 44.1067 13.8867C44.7513 15.5273 45.3665 17.168 46.011 18.8086C46.0403 18.8379 46.011 18.8965 46.0403 19.0137C45.5423 19.0137 45.0442 19.0137 44.5755 19.0137C44.5169 19.0137 44.429 18.8672 44.3704 18.7793C44.2825 18.6035 44.2239 18.4277 44.1946 18.252C44.136 17.9883 43.9896 17.8711 43.6966 17.8711C43.2864 17.9004 42.9056 17.8711 42.4954 17.8711C42.2317 17.8711 42.0853 17.959 41.9974 18.2227C41.6458 19.1895 41.8216 19.043 40.7962 19.043C40.6497 19.043 40.5032 19.043 40.3567 19.043C40.2981 19.0137 40.2688 18.9844 40.181 18.9551ZM43.1399 15.0293C43.1106 15.0293 43.0813 15.0293 43.0228 15.0293C42.8763 15.498 42.7005 15.9961 42.554 16.4648C42.5247 16.5234 42.6419 16.7285 42.6712 16.7285C42.9642 16.7578 43.2571 16.7285 43.638 16.7285C43.4622 16.1133 43.3157 15.5859 43.1399 15.0293Z" fill="black" fill-opacity="0.5"/>
<path d="M74.8685 15.6445C74.8685 16.084 74.8685 16.4941 74.8685 16.9336C74.8685 18.1933 74.3411 18.8379 73.1106 19.0722C72.261 19.2187 71.4407 19.1601 70.7669 18.5742C70.2981 18.1933 70.1224 17.666 70.1224 17.08C70.0931 16.0547 70.1224 15.0586 70.1224 14.0332C70.1224 13.7109 70.2396 13.5937 70.5618 13.623C70.7962 13.6523 71.0599 13.623 71.2942 13.623C71.5872 13.623 71.6751 13.7402 71.6751 14.0039C71.6751 14.9121 71.6751 15.8203 71.6751 16.6992C71.6751 16.9043 71.7044 17.08 71.7337 17.2851C71.8509 17.7539 72.0853 17.959 72.6126 17.9297C73.0228 17.9004 73.3157 17.666 73.345 17.1972C73.4036 16.3476 73.4036 15.4687 73.4329 14.6191C73.4622 13.4472 73.2571 13.623 74.4876 13.5937C74.8099 13.5937 74.9271 13.7109 74.9271 14.0039C74.8685 14.5605 74.8685 15.0879 74.8685 15.6445Z" fill="black" fill-opacity="0.5"/>
<path d="M21.1966 16.2891C21.1966 15.5273 21.1966 14.7656 21.1966 14.0332C21.1966 13.7402 21.3138 13.623 21.6068 13.623C22.7493 13.623 23.8626 13.623 25.0052 13.623C25.3275 13.623 25.3861 13.7402 25.2689 14.0332C24.888 14.9414 25.181 14.8828 24.0677 14.8828C23.804 14.8828 23.5404 14.8828 23.2767 14.8828C22.8958 14.8828 22.9837 15.1465 22.9544 15.3809C22.9544 15.6152 22.9251 15.8496 23.2767 15.8203C23.5989 15.8203 23.9212 15.8203 24.2728 15.8203C24.5072 15.8203 24.595 15.9082 24.5071 16.1426C24.4193 16.4062 24.3607 16.6699 24.2142 16.9043C24.1263 17.0215 23.9505 17.1387 23.7747 17.1387C22.9544 17.1973 22.9544 17.168 22.9544 18.0176C22.9544 18.252 22.9544 18.5156 22.9544 18.75C22.9544 18.9551 22.8665 19.0723 22.6321 19.0723C22.2806 19.0723 21.929 19.0723 21.5775 19.0723C21.2845 19.0723 21.1966 18.9258 21.1966 18.6621C21.1966 17.8418 21.1966 17.0508 21.1966 16.2891Z" fill="black" fill-opacity="0.5"/>
<path d="M32.7981 13.6816C32.6517 14.0332 32.5638 14.3847 32.388 14.707C32.3587 14.7949 32.1536 14.8242 32.0364 14.8242C31.597 14.8535 31.1575 14.8242 30.7181 14.8242C30.4837 14.8242 30.3958 14.8828 30.3958 15.1465C30.4251 15.8203 30.2493 15.791 31.0403 15.791C31.3333 15.791 31.6263 15.791 32.0071 15.791C31.8606 16.2304 31.7435 16.582 31.5677 16.875C31.4798 16.9922 31.2161 17.08 31.0403 17.08C30.3665 17.1093 30.3665 17.1093 30.3665 17.7539C30.3665 18.0468 30.3665 18.3105 30.3665 18.6035C30.3665 18.8672 30.2786 18.9843 30.0149 18.9843C29.6634 18.9843 29.3118 18.9843 28.9602 18.9843C28.7259 18.9843 28.638 18.8965 28.638 18.6621C28.638 17.08 28.638 15.498 28.638 13.916C28.638 13.7109 28.6966 13.5937 28.931 13.5937C30.1614 13.5937 31.3919 13.5937 32.6224 13.5937C32.6517 13.623 32.681 13.6523 32.7981 13.6816Z" fill="black" fill-opacity="0.5"/>
<path d="M69.5071 14.9414C69.097 14.8242 68.7747 14.7071 68.4231 14.6485C67.6028 14.502 66.929 14.8535 66.636 15.5274C66.2845 16.2598 66.4603 17.1094 67.0462 17.5782C67.5735 18.0176 68.2181 17.959 68.8333 17.8418C69.6243 17.6953 69.6536 17.666 69.595 18.5157C69.595 18.6621 69.4778 18.8672 69.3606 18.8965C68.1888 19.1895 67.0462 19.2188 66.0208 18.5157C65.2591 18.0176 64.8782 17.3145 64.9075 16.4063C64.9368 15.9375 64.9954 15.4395 65.1419 15C65.4935 14.0918 66.2845 13.711 67.1634 13.5059C67.8372 13.3594 68.4817 13.4473 69.1556 13.6231C69.4485 13.711 69.595 13.8282 69.5657 14.1504C69.5657 14.4141 69.5364 14.6778 69.5071 14.9414Z" fill="black" fill-opacity="0.5"/>
<path d="M41.8216 21.8262C41.6458 22.2656 41.4993 22.6172 41.2942 22.9688C41.2356 23.0566 41.0599 23.0859 40.9427 23.1152C40.679 23.1445 40.4153 23.1152 40.1517 23.1152C39.6829 23.1152 39.6536 23.1445 39.6536 23.6133C39.6536 24.668 39.6536 25.7227 39.6536 26.8066C39.6536 27.4512 39.2728 27.9785 38.6868 28.1836C38.2767 28.3301 38.1888 28.2715 38.1888 27.832C38.1888 26.4551 38.1888 25.0488 38.1888 23.6719C38.1888 23.1738 38.1888 23.1445 37.6907 23.1445C37.3978 23.1445 37.0755 23.1445 36.7825 23.1445C36.5189 23.1445 36.431 23.0566 36.5189 22.793C36.6946 22.207 37.1634 21.8262 37.7493 21.8262C38.9798 21.8262 40.2103 21.8262 41.4407 21.8262C41.4993 21.7969 41.6165 21.8262 41.8216 21.8262Z" fill="black" fill-opacity="0.5"/>
<path d="M27.554 16.3183C27.554 17.08 27.554 17.8418 27.554 18.6328C27.554 18.955 27.4368 19.0722 27.1146 19.0429C26.7923 19.0136 26.47 19.0429 26.1771 19.0429C25.9134 19.0429 25.7962 18.9258 25.7962 18.6621C25.7962 17.08 25.7962 15.5273 25.7962 13.9453C25.7962 13.6816 25.9134 13.5937 26.1478 13.5937C26.4993 13.5937 26.8216 13.5937 27.1732 13.5937C27.4661 13.5937 27.554 13.7109 27.554 14.0039C27.554 14.7656 27.554 15.5273 27.554 16.3183Z" fill="black" fill-opacity="0.5"/>
<path d="M12.0267 34.3945C12.9642 34.7461 13.4622 34.2481 13.8724 33.5449C13.9603 33.3984 14.136 33.252 14.3118 33.1641C14.6341 32.9883 15.1028 33.3398 15.0735 33.6621C15.0735 33.7207 15.0442 33.7793 14.9857 33.8086C14.7513 34.1016 14.5755 34.3945 14.3118 34.6582C14.1067 34.8926 13.8431 35.0391 13.5794 35.2441C13.5208 35.2734 13.4036 35.332 13.4036 35.3613C13.4036 35.6543 13.1985 35.5957 13.0228 35.625C12.6419 35.6836 12.4075 35.6543 12.3782 35.1856C12.3782 34.9512 12.1732 34.7168 12.0267 34.3945Z" fill="black" fill-opacity="0.5"/>
<path d="M15.4837 32.3438C15.1614 32.3438 14.9563 32.3438 14.722 32.3438C14.8099 32.1387 14.8978 31.9043 14.9563 31.7285C14.8099 31.7871 14.6341 31.8457 14.3997 31.9336C14.5169 31.6992 15.1614 31.2012 15.3079 31.2598C15.3958 31.2891 15.4544 31.4942 15.4544 31.582C15.3958 31.7285 15.2786 31.8457 15.1028 32.0801C15.3665 32.0508 15.513 32.0215 15.6595 32.0508C15.7767 32.0801 15.8938 32.1387 15.9817 32.1973C15.9231 32.2852 15.8938 32.3731 15.806 32.4317C15.6009 32.5781 15.3958 32.6953 15.1614 32.7832C15.1028 32.8125 15.0149 32.7832 14.9271 32.7539C14.9563 32.6953 14.9856 32.6074 15.0442 32.5488C15.1907 32.4903 15.3079 32.4317 15.4837 32.3438Z" fill="black" fill-opacity="0.5"/>
<path d="M14.8685 35.2442C15.0442 34.9219 15.2493 34.5996 15.4251 34.3067C15.4544 34.3067 15.513 34.3067 15.5423 34.3067C15.6009 34.5117 15.7474 34.7754 15.6888 34.8633C15.513 35.0684 15.22 35.2149 14.9563 35.3907C14.927 35.3321 14.8977 35.3028 14.8685 35.2442Z" fill="black" fill-opacity="0.5"/>
<path d="M15.2786 31.1133C14.8099 30.7031 14.5462 31.3183 14.1067 31.2011C14.2239 31.1133 14.3411 30.9668 14.4876 30.9082C14.7513 30.791 14.9271 30.6738 14.8099 30.3222C14.8392 30.3222 14.8978 30.2929 14.9271 30.2929C15.0735 30.5273 15.22 30.791 15.3665 31.0254C15.3079 31.0254 15.2786 31.084 15.2786 31.1133Z" fill="black" fill-opacity="0.5"/>
</svg>
