<svg width="51" height="17" viewBox="0 0 51 17" fill="none" xmlns="http://www.w3.org/2000/svg">
<path d="M36.2789 16.4742C35.7234 16.4742 35.1703 16.4789 34.6148 16.4719C34.2727 16.4672 33.9281 16.4484 33.5859 16.4344C33.5695 16.4344 33.5555 16.432 33.5391 16.432C33.293 16.4039 33.2625 16.3547 33.3469 16.125C34.0734 14.1094 34.7977 12.0914 35.5242 10.0758C36.3562 7.7625 37.1906 5.44687 38.0227 3.13359C38.3625 2.18906 38.7023 1.24453 39.0352 0.299997C39.0797 0.173435 39.1547 0.0960912 39.2812 0.0820287C39.5016 0.0562475 39.7242 0.0257786 39.9445 0.0210911C40.7344 0.00937235 41.5219 -2.3637e-06 42.3117 0.00234139C42.8766 0.00468514 43.4437 0.025779 44.0086 0.0398415C44.0367 0.0398415 44.0625 0.0445287 44.0906 0.0468725C44.3484 0.0539037 44.482 0.175778 44.5734 0.428903C45.3492 2.61328 46.1414 4.79297 46.9266 6.975C47.8758 9.61172 48.8227 12.2508 49.7719 14.8898C49.9406 15.3609 50.107 15.832 50.2734 16.3031C50.3133 16.4156 50.3016 16.432 50.1797 16.4344C48.5859 16.4484 46.9922 16.4625 45.4008 16.4789C45.2977 16.4789 45.2695 16.425 45.2461 16.343C45.0586 15.7102 44.8664 15.0797 44.6812 14.4469C44.6531 14.3508 44.6086 14.3156 44.5102 14.318C43.6477 14.325 42.7828 14.325 41.9203 14.3297C41.2711 14.3344 40.6242 14.3437 39.975 14.3531C39.6 14.3578 39.225 14.3695 38.85 14.3719C38.7609 14.3719 38.7211 14.4023 38.6977 14.4891C38.5336 15.1031 38.3578 15.7148 38.1961 16.3312C38.1656 16.4414 38.1211 16.4812 38.0039 16.4812C37.4297 16.4766 36.8555 16.4789 36.2812 16.4789C36.2789 16.4766 36.2789 16.4766 36.2789 16.4742ZM43.7672 11.0906C43.7555 11.0437 43.7437 11.0016 43.732 10.9617C43.1742 9.10547 42.6187 7.24687 42.0586 5.39062C41.9672 5.08828 41.8664 4.78828 41.768 4.48828C41.7562 4.45312 41.7187 4.425 41.6953 4.39453C41.6695 4.425 41.6344 4.45078 41.6156 4.48593C41.5922 4.53515 41.5781 4.58906 41.5617 4.64062C41.1773 5.97656 40.7883 7.31015 40.4133 8.64609C40.1953 9.42422 40.0031 10.207 39.7945 10.9875C39.7687 11.0836 39.7898 11.1258 39.8953 11.1258C40.1109 11.1281 40.3242 11.1469 40.5398 11.1445C41.3203 11.1398 42.1008 11.1328 42.8812 11.1234C43.1461 11.1211 43.4109 11.1117 43.6781 11.1023C43.7039 11.1047 43.7297 11.0953 43.7672 11.0906Z" fill="black" fill-opacity="0.5"/>
<path d="M10.2 7.03828C10.1812 7.09688 10.1719 7.14141 10.1555 7.1836C9.73594 8.27813 9.31641 9.37031 8.90156 10.4648C8.86406 10.5656 8.81015 10.5984 8.70234 10.5984C7.58906 10.5961 6.47578 10.5961 5.3625 10.5961C5.18906 10.5961 5.18906 10.5961 5.18906 10.7695C5.18906 12.6141 5.18906 14.4563 5.18906 16.3008C5.18906 16.4766 5.18906 16.4789 5.01562 16.4789C3.40312 16.4789 1.78828 16.4789 0.175781 16.4789C0.0046875 16.4789 0 16.4742 0 16.2984C0 10.9266 0 5.55703 0 0.185159C0 0.00468976 0.00234383 0.00234629 0.182813 0.00234629C2.35781 0.00234629 4.53516 2.54303e-06 6.71016 0.00234629C8.01797 0.00469004 9.32578 0.0117213 10.6359 0.0257838C11.2336 0.0304713 11.8312 0.0539085 12.4266 0.067971C12.4453 0.067971 12.4664 0.070315 12.4852 0.0726588C12.6141 0.089065 12.6305 0.105471 12.5883 0.227346C12.457 0.607034 12.3234 0.986721 12.1852 1.36407C11.9297 2.05313 11.6695 2.7375 11.4164 3.42657C11.3766 3.53438 11.3227 3.57422 11.2055 3.57422C10.4859 3.57657 9.76875 3.58828 9.04922 3.59531C8.15156 3.60469 7.25391 3.61172 6.35391 3.6211C6.00703 3.62578 5.66016 3.63516 5.31094 3.6375C5.22187 3.6375 5.18672 3.66328 5.18672 3.75703C5.18906 4.7836 5.18906 5.8125 5.18672 6.83906C5.18672 6.93985 5.22422 6.96563 5.31797 6.96563C6.06797 6.97031 6.81797 6.97735 7.56797 6.98672C8.40234 6.99844 9.23906 7.0125 10.0734 7.02656C10.1086 7.02656 10.1461 7.03125 10.2 7.03828Z" fill="black" fill-opacity="0.5"/>
<path d="M33.2414 6.97266C33.2227 7.03125 33.2109 7.07344 33.1969 7.11094C32.768 8.20547 32.3367 9.29766 31.9102 10.3922C31.8703 10.4953 31.8164 10.5305 31.7062 10.5328C30.8953 10.5445 30.082 10.5609 29.2711 10.5773C28.9711 10.5844 28.6711 10.5984 28.3687 10.5961C28.2516 10.5961 28.2258 10.6359 28.2258 10.7461C28.2281 12.5859 28.2281 14.4258 28.2281 16.2656C28.2281 16.3055 28.2258 16.343 28.2281 16.3828C28.2305 16.4484 28.2 16.4766 28.1367 16.4766C28.1016 16.4766 28.0664 16.4789 28.0312 16.4789C26.4328 16.4789 24.8367 16.4789 23.2383 16.4789C23.0391 16.4789 23.0391 16.4789 23.0391 16.275C23.0391 10.9172 23.0391 5.55703 23.0391 0.199221C23.0391 0.00234615 23.0391 0.00234629 23.2312 0.00234629C25.957 0.00234629 28.6828 2.54303e-06 31.4109 0.00234629C32.3836 0.00234629 33.3562 0.0093774 34.3289 0.0234399C34.6992 0.0281274 35.0695 0.0585959 35.4375 0.0890646C35.625 0.105471 35.6414 0.147658 35.5734 0.325783C35.2125 1.28672 34.8398 2.24297 34.4953 3.21094C34.3945 3.49219 34.2211 3.5836 33.9562 3.59063C33.368 3.60469 32.7773 3.63047 32.1891 3.63281C30.9234 3.63985 29.6578 3.63516 28.3922 3.63516C28.2258 3.63516 28.2258 3.63516 28.2258 3.80157C28.2258 4.79766 28.2258 5.79375 28.2258 6.78985C28.2258 6.9586 28.2258 6.9586 28.3922 6.9586C29.9461 6.9586 31.5 6.9586 33.0562 6.9586C33.1125 6.96094 33.1687 6.96797 33.2414 6.97266Z" fill="black" fill-opacity="0.5"/>
<path d="M19.4766 8.24766C19.4766 10.8961 19.4766 13.5445 19.4766 16.193C19.4766 16.2281 19.4766 16.2633 19.4766 16.2984C19.4766 16.4742 19.4719 16.4766 19.3008 16.4789C18.5812 16.4789 17.8641 16.4789 17.1445 16.4789C16.2492 16.4789 15.3562 16.4789 14.4609 16.4789C14.2875 16.4789 14.2875 16.4789 14.2875 16.3125C14.2898 12.0164 14.2922 7.72031 14.2969 3.42188C14.2969 2.7375 14.3086 2.05547 14.3203 1.37109C14.3273 0.99375 14.3437 0.614063 14.3578 0.236719C14.3648 0.0796876 14.3766 0.067969 14.5406 0.0632815C15.1969 0.0445315 15.8508 0.0234376 16.507 0.0140626C17.4375 0.00234389 18.3656 0.00234375 19.2961 0C19.4742 0 19.4766 0.0023436 19.4766 0.185156C19.4766 2.87344 19.4766 5.56172 19.4766 8.24766Z" fill="black" fill-opacity="0.5"/>
</svg>
